<svg xmlns:xlink="http://www.w3.org/1999/xlink" version="1.1" class="highcharts-root" style="font-family: &quot;Lucida Sans Unicode&quot;; font-size: 1rem;" xmlns="http://www.w3.org/2000/svg" width="1024" height="576" viewBox="0 0 1024 576" role="img" aria-label="Installierte Wind- und Solarleistung in Deutschland in 2025"><desc>Created with Highcharts 11.2.0</desc><defs><pattern id="highcharts-pattern-1-440183212aeadbbe-export" patternUnits="userSpaceOnUse" patternContentUnits="userSpaceOnUse" width="10" height="10" x="0" y="0"><path d="M 0 0 L 10 10 M 9 -1 L 11 1 M -1 9 L 1 11" stroke="rgb(230, 25, 75)" stroke-width="2" fill="none"></path></pattern><pattern id="highcharts-pattern-1-51c4715d1133334d0-export" patternUnits="userSpaceOnUse" patternContentUnits="userSpaceOnUse" width="10" height="10" x="0" y="0"><path d="M 0 0 L 10 10 M 9 -1 L 11 1 M -1 9 L 1 11" stroke="rgb(60, 180, 75)" stroke-width="2" fill="none"></path></pattern><pattern id="highcharts-pattern-1-1dd3fc76317535f4-export" patternUnits="userSpaceOnUse" patternContentUnits="userSpaceOnUse" width="10" height="10" x="0" y="0"><path d="M 0 0 L 10 10 M 9 -1 L 11 1 M -1 9 L 1 11" stroke="rgb(0, 130, 200)" stroke-width="2" fill="none"></path></pattern><pattern id="highcharts-pattern-1-142f017b39fec1ea-export" patternUnits="userSpaceOnUse" patternContentUnits="userSpaceOnUse" width="10" height="10" x="0" y="0"><path d="M 0 0 L 10 10 M 9 -1 L 11 1 M -1 9 L 1 11" stroke="rgb(70, 240, 240)" stroke-width="2" fill="none"></path></pattern><pattern id="highcharts-pattern-1-5485b440167d0d08-export" patternUnits="userSpaceOnUse" patternContentUnits="userSpaceOnUse" width="10" height="10" x="0" y="0"><path d="M 0 0 L 10 10 M 9 -1 L 11 1 M -1 9 L 1 11" stroke="rgb(240, 50, 230)" stroke-width="2" fill="none"></path></pattern><pattern id="highcharts-pattern-1-51f1afcc13e90894-export" patternUnits="userSpaceOnUse" patternContentUnits="userSpaceOnUse" width="10" height="10" x="0" y="0"><path d="M 0 10 L 10 0 M 9 1 L 11 -1 M -1 11 L 1 9" stroke="rgb(240, 50, 230)" stroke-width="2" fill="none"></path></pattern><pattern id="highcharts-pattern-1-264a2642172209d7a-export" patternUnits="userSpaceOnUse" patternContentUnits="userSpaceOnUse" width="10" height="10" x="0" y="0"><path d="M 0 0 L 10 10 M 9 -1 L 11 1 M -1 9 L 1 11" stroke="rgb(210, 245, 60)" stroke-width="2" fill="none"></path></pattern><pattern id="highcharts-pattern-1-23b621ce174b4a1ee-export" patternUnits="userSpaceOnUse" patternContentUnits="userSpaceOnUse" width="10" height="10" x="0" y="0"><path d="M 0 10 L 10 0 M 9 1 L 11 -1 M -1 11 L 1 9" stroke="rgb(210, 245, 60)" stroke-width="2" fill="none"></path></pattern><pattern id="highcharts-pattern-1-4edb7ef2175945ea0-export" patternUnits="userSpaceOnUse" patternContentUnits="userSpaceOnUse" width="10" height="10" x="0" y="0"><path d="M 0 0 L 10 10 M 9 -1 L 11 1 M -1 9 L 1 11" stroke="rgb(250, 190, 212)" stroke-width="2" fill="none"></path></pattern><pattern id="highcharts-pattern-1-135e7034614212a48-export" patternUnits="userSpaceOnUse" patternContentUnits="userSpaceOnUse" width="10" height="10" x="0" y="0"><path d="M 0 0 L 10 10 M 9 -1 L 11 1 M -1 9 L 1 11" stroke="rgb(0, 128, 128)" stroke-width="2" fill="none"></path></pattern><pattern id="highcharts-pattern-1-4182fb50174ce563e-export" patternUnits="userSpaceOnUse" patternContentUnits="userSpaceOnUse" width="10" height="10" x="0" y="0"><path d="M 0 0 L 10 10 M 9 -1 L 11 1 M -1 9 L 1 11" stroke="rgb(220, 190, 255)" stroke-width="2" fill="none"></path></pattern><pattern id="highcharts-pattern-1-5f08a83c131cef0ba-export" patternUnits="userSpaceOnUse" patternContentUnits="userSpaceOnUse" width="10" height="10" x="0" y="0"><path d="M 0 0 L 10 10 M 9 -1 L 11 1 M -1 9 L 1 11" stroke="rgb(170, 110, 40)" stroke-width="2" fill="none"></path></pattern><pattern id="highcharts-pattern-1-7be05d1314c172380-export" patternUnits="userSpaceOnUse" patternContentUnits="userSpaceOnUse" width="10" height="10" x="0" y="0"><path d="M 0 0 L 10 10 M 9 -1 L 11 1 M -1 9 L 1 11" stroke="rgb(255, 250, 200)" stroke-width="2" fill="none"></path></pattern><pattern id="highcharts-pattern-1-3b791f731e8d366a-export" patternUnits="userSpaceOnUse" patternContentUnits="userSpaceOnUse" width="10" height="10" x="0" y="0"><path d="M 0 0 L 10 10 M 9 -1 L 11 1 M -1 9 L 1 11" stroke="rgb(128, 0, 0)" stroke-width="2" fill="none"></path></pattern><pattern id="highcharts-pattern-1-1372d309b324638e0-export" patternUnits="userSpaceOnUse" patternContentUnits="userSpaceOnUse" width="10" height="10" x="0" y="0"><path d="M 0 0 L 10 10 M 9 -1 L 11 1 M -1 9 L 1 11" stroke="rgb(170, 255, 195)" stroke-width="2" fill="none"></path></pattern><pattern id="highcharts-pattern-1-a236c6e542b99fc-export" patternUnits="userSpaceOnUse" patternContentUnits="userSpaceOnUse" width="10" height="10" x="0" y="0"><path d="M 0 10 L 10 0 M 9 1 L 11 -1 M -1 11 L 1 9" stroke="rgb(128, 128, 0)" stroke-width="2" fill="none"></path></pattern><filter id="highcharts-drop-shadow-1"><feDropShadow dx="1" dy="1" flood-color="#000000" flood-opacity="0.75" stdDeviation="2.5"></feDropShadow></filter><clipPath id="highcharts-vf640ll-79-"><rect x="0" y="0" width="923" height="322" fill="none"></rect></clipPath><clipPath id="highcharts-vf640ll-81-"><rect x="0" y="0" width="923" height="322" fill="none"></rect></clipPath></defs><rect fill="white" class="highcharts-background" filter="none" x="0" y="0" width="1024" height="576" rx="0" ry="0"></rect><rect fill="none" class="highcharts-plot-background" x="91" y="50" width="923" height="322" filter="none"></rect><g class="highcharts-pane-group" data-z-index="0"></g><g class="highcharts-grid highcharts-xaxis-grid" data-z-index="1"><path fill="none" stroke="#e6e6e6" stroke-width="0" stroke-dasharray="none" data-z-index="1" class="highcharts-grid-line" d="M 1013.5 50 L 1013.5 372" opacity="1"></path><path fill="none" stroke="#e6e6e6" stroke-width="0" stroke-dasharray="none" data-z-index="1" class="highcharts-grid-line" d="M 90.5 50 L 90.5 372" opacity="1"></path></g><g class="highcharts-grid highcharts-yaxis-grid" data-z-index="1"><path fill="none" stroke="#e6e6e6" stroke-width="1" stroke-dasharray="none" data-z-index="1" class="highcharts-grid-line" d="M 91 372.5 L 1014 372.5" opacity="1"></path><path fill="none" stroke="#e6e6e6" stroke-width="1" stroke-dasharray="none" data-z-index="1" class="highcharts-grid-line" d="M 91 326.5 L 1014 326.5" opacity="1"></path><path fill="none" stroke="#e6e6e6" stroke-width="1" stroke-dasharray="none" data-z-index="1" class="highcharts-grid-line" d="M 91 280.5 L 1014 280.5" opacity="1"></path><path fill="none" stroke="#e6e6e6" stroke-width="1" stroke-dasharray="none" data-z-index="1" class="highcharts-grid-line" d="M 91 234.5 L 1014 234.5" opacity="1"></path><path fill="none" stroke="#e6e6e6" stroke-width="1" stroke-dasharray="none" data-z-index="1" class="highcharts-grid-line" d="M 91 188.5 L 1014 188.5" opacity="1"></path><path fill="none" stroke="#e6e6e6" stroke-width="1" stroke-dasharray="none" data-z-index="1" class="highcharts-grid-line" d="M 91 142.5 L 1014 142.5" opacity="1"></path><path fill="none" stroke="#e6e6e6" stroke-width="1" stroke-dasharray="none" data-z-index="1" class="highcharts-grid-line" d="M 91 96.5 L 1014 96.5" opacity="1"></path><path fill="none" stroke="#e6e6e6" stroke-width="1" stroke-dasharray="none" data-z-index="1" class="highcharts-grid-line" d="M 91 49.5 L 1014 49.5" opacity="1"></path></g><rect fill="none" class="highcharts-plot-border" data-z-index="1" stroke="#cccccc" stroke-width="0" x="91" y="50" width="923" height="322"></rect><g class="highcharts-axis highcharts-xaxis" data-z-index="2"><text x="552.5" data-z-index="7" text-anchor="middle" transform="translate(0,0)" class="highcharts-axis-title" style="color: rgb(102, 102, 102); font-size: 0.8em; fill: rgb(102, 102, 102);" y="420">Jahr</text><path fill="none" class="highcharts-axis-line" stroke="#333333" stroke-width="1" data-z-index="7" d="M 91 372.5 L 1014 372.5"></path></g><g class="highcharts-axis highcharts-yaxis" data-z-index="2"><text x="25.03125" data-z-index="7" text-anchor="middle" transform="translate(0,0) rotate(270 25.03125 211)" class="highcharts-axis-title" style="color: rgb(102, 102, 102); font-size: 0.8em; font-weight: bold; fill: rgb(102, 102, 102);" y="211">Leistung (MW)</text><path fill="none" class="highcharts-axis-line" stroke="#333333" stroke-width="0" data-z-index="7" d="M 91 50 L 91 372"></path></g><g class="highcharts-series-group" data-z-index="3" filter="none"><g class="highcharts-series highcharts-series-0 highcharts-column-series" data-z-index="0.1" opacity="1" transform="translate(91,50) scale(1 1)" clip-path="url(#highcharts-vf640ll-81-)"><path fill="rgb(230, 25, 75)" d="M 48.5 195.5 L 103.5 195.5 A 0 0 0 0 1 103.5 195.5 L 103.5 322.5 A 0 0 0 0 1 103.5 322.5 L 48.5 322.5 A 0 0 0 0 1 48.5 322.5 L 48.5 195.5 A 0 0 0 0 1 48.5 195.5 Z" stroke="rgb(230, 25, 75)" stroke-width="1" opacity="1" filter="none" class="highcharts-point"></path></g><g class="highcharts-markers highcharts-series-0 highcharts-column-series" data-z-index="0.1" opacity="1" transform="translate(91,50) scale(1 1)" clip-path="none"></g><g class="highcharts-series highcharts-series-1 highcharts-column-series" data-z-index="0.1" opacity="1" transform="translate(91,50) scale(1 1)" clip-path="url(#highcharts-vf640ll-81-)"><path fill="url(#highcharts-pattern-1-440183212aeadbbe-export)" d="M 51.5 177.5 L 100.5 177.5 A 3 3 0 0 1 103.5 180.5 L 103.5 195.5 A 0 0 0 0 1 103.5 195.5 L 48.5 195.5 A 0 0 0 0 1 48.5 195.5 L 48.5 180.5 A 3 3 0 0 1 51.5 177.5 Z" stroke="rgb(230, 25, 75)" stroke-width="1" opacity="1" filter="none" class="highcharts-point"></path></g><g class="highcharts-markers highcharts-series-1 highcharts-column-series" data-z-index="0.1" opacity="1" transform="translate(91,50) scale(1 1)" clip-path="none"></g><g class="highcharts-series highcharts-series-2 highcharts-column-series" data-z-index="0.1" opacity="1" transform="translate(91,50) scale(1 1)" clip-path="url(#highcharts-vf640ll-81-)"><path fill="rgb(60, 180, 75)" d="M 107.5 54.5 L 162.5 54.5 A 0 0 0 0 1 162.5 54.5 L 162.5 322.5 A 0 0 0 0 1 162.5 322.5 L 107.5 322.5 A 0 0 0 0 1 107.5 322.5 L 107.5 54.5 A 0 0 0 0 1 107.5 54.5 Z" stroke="rgb(60, 180, 75)" stroke-width="1" opacity="1" filter="none" class="highcharts-point"></path></g><g class="highcharts-markers highcharts-series-2 highcharts-column-series" data-z-index="0.1" opacity="1" transform="translate(91,50) scale(1 1)" clip-path="none"></g><g class="highcharts-series highcharts-series-3 highcharts-column-series" data-z-index="0.1" opacity="1" transform="translate(91,50) scale(1 1)" clip-path="url(#highcharts-vf640ll-81-)"><path fill="url(#highcharts-pattern-1-51c4715d1133334d0-export)" d="M 110.5 28.5 L 159.5 28.5 A 3 3 0 0 1 162.5 31.5 L 162.5 54.5 A 0 0 0 0 1 162.5 54.5 L 107.5 54.5 A 0 0 0 0 1 107.5 54.5 L 107.5 31.5 A 3 3 0 0 1 110.5 28.5 Z" stroke="rgb(60, 180, 75)" stroke-width="1" opacity="1" filter="none" class="highcharts-point"></path></g><g class="highcharts-markers highcharts-series-3 highcharts-column-series" data-z-index="0.1" opacity="1" transform="translate(91,50) scale(1 1)" clip-path="none"></g><g class="highcharts-series highcharts-series-4 highcharts-column-series" visibility="hidden" data-z-index="0.1" opacity="1" transform="translate(91,50) scale(1 1)" clip-path="url(#highcharts-vf640ll-81-)"></g><g class="highcharts-markers highcharts-series-4 highcharts-column-series" visibility="hidden" data-z-index="0.1" opacity="1" transform="translate(91,50) scale(1 1)" clip-path="none"></g><g class="highcharts-series highcharts-series-5 highcharts-column-series" visibility="hidden" data-z-index="0.1" opacity="1" transform="translate(91,50) scale(1 1)" clip-path="url(#highcharts-vf640ll-81-)"></g><g class="highcharts-markers highcharts-series-5 highcharts-column-series" visibility="hidden" data-z-index="0.1" opacity="1" transform="translate(91,50) scale(1 1)" clip-path="none"></g><g class="highcharts-series highcharts-series-6 highcharts-column-series" data-z-index="0.1" opacity="1" transform="translate(91,50) scale(1 1)" clip-path="url(#highcharts-vf640ll-81-)"><path fill="rgb(0, 130, 200)" d="M 166.5 244.5 L 221.5 244.5 A 0 0 0 0 1 221.5 244.5 L 221.5 322.5 A 0 0 0 0 1 221.5 322.5 L 166.5 322.5 A 0 0 0 0 1 166.5 322.5 L 166.5 244.5 A 0 0 0 0 1 166.5 244.5 Z" stroke="rgb(0, 130, 200)" stroke-width="1" opacity="1" filter="none" class="highcharts-point"></path></g><g class="highcharts-markers highcharts-series-6 highcharts-column-series" data-z-index="0.1" opacity="1" transform="translate(91,50) scale(1 1)" clip-path="none"></g><g class="highcharts-series highcharts-series-7 highcharts-column-series" data-z-index="0.1" opacity="1" transform="translate(91,50) scale(1 1)" clip-path="url(#highcharts-vf640ll-81-)"><path fill="url(#highcharts-pattern-1-1dd3fc76317535f4-export)" d="M 169.5 159.5 L 218.5 159.5 A 3 3 0 0 1 221.5 162.5 L 221.5 244.5 A 0 0 0 0 1 221.5 244.5 L 166.5 244.5 A 0 0 0 0 1 166.5 244.5 L 166.5 162.5 A 3 3 0 0 1 169.5 159.5 Z" stroke="rgb(0, 130, 200)" stroke-width="1" opacity="1" filter="none" class="highcharts-point"></path></g><g class="highcharts-markers highcharts-series-7 highcharts-column-series" data-z-index="0.1" opacity="1" transform="translate(91,50) scale(1 1)" clip-path="none"></g><g class="highcharts-series highcharts-series-8 highcharts-column-series" visibility="hidden" data-z-index="0.1" opacity="1" transform="translate(91,50) scale(1 1)" clip-path="url(#highcharts-vf640ll-81-)"></g><g class="highcharts-markers highcharts-series-8 highcharts-column-series" visibility="hidden" data-z-index="0.1" opacity="1" transform="translate(91,50) scale(1 1)" clip-path="none"></g><g class="highcharts-series highcharts-series-9 highcharts-column-series" visibility="hidden" data-z-index="0.1" opacity="1" transform="translate(91,50) scale(1 1)" clip-path="url(#highcharts-vf640ll-81-)"></g><g class="highcharts-markers highcharts-series-9 highcharts-column-series" visibility="hidden" data-z-index="0.1" opacity="1" transform="translate(91,50) scale(1 1)" clip-path="none"></g><g class="highcharts-series highcharts-series-10 highcharts-column-series" visibility="hidden" data-z-index="0.1" opacity="1" transform="translate(91,50) scale(1 1)" clip-path="url(#highcharts-vf640ll-81-)"></g><g class="highcharts-markers highcharts-series-10 highcharts-column-series" visibility="hidden" data-z-index="0.1" opacity="1" transform="translate(91,50) scale(1 1)" clip-path="none"></g><g class="highcharts-series highcharts-series-11 highcharts-column-series" visibility="hidden" data-z-index="0.1" opacity="1" transform="translate(91,50) scale(1 1)" clip-path="url(#highcharts-vf640ll-81-)"></g><g class="highcharts-markers highcharts-series-11 highcharts-column-series" visibility="hidden" data-z-index="0.1" opacity="1" transform="translate(91,50) scale(1 1)" clip-path="none"></g><g class="highcharts-series highcharts-series-12 highcharts-column-series" data-z-index="0.1" opacity="1" transform="translate(91,50) scale(1 1)" clip-path="url(#highcharts-vf640ll-81-)"><path fill="rgb(70, 240, 240)" d="M 226.5 275.5 L 281.5 275.5 A 0 0 0 0 1 281.5 275.5 L 281.5 322.5 A 0 0 0 0 1 281.5 322.5 L 226.5 322.5 A 0 0 0 0 1 226.5 322.5 L 226.5 275.5 A 0 0 0 0 1 226.5 275.5 Z" stroke="rgb(70, 240, 240)" stroke-width="1" opacity="1" filter="none" class="highcharts-point"></path></g><g class="highcharts-markers highcharts-series-12 highcharts-column-series" data-z-index="0.1" opacity="1" transform="translate(91,50) scale(1 1)" clip-path="none"></g><g class="highcharts-series highcharts-series-13 highcharts-column-series" data-z-index="0.1" opacity="1" transform="translate(91,50) scale(1 1)" clip-path="url(#highcharts-vf640ll-81-)"><path fill="url(#highcharts-pattern-1-142f017b39fec1ea-export)" d="M 229.5 251.5 L 278.5 251.5 A 3 3 0 0 1 281.5 254.5 L 281.5 275.5 A 0 0 0 0 1 281.5 275.5 L 226.5 275.5 A 0 0 0 0 1 226.5 275.5 L 226.5 254.5 A 3 3 0 0 1 229.5 251.5 Z" stroke="rgb(70, 240, 240)" stroke-width="1" opacity="1" filter="none" class="highcharts-point"></path></g><g class="highcharts-markers highcharts-series-13 highcharts-column-series" data-z-index="0.1" opacity="1" transform="translate(91,50) scale(1 1)" clip-path="none"></g><g class="highcharts-series highcharts-series-14 highcharts-column-series" data-z-index="0.1" opacity="1" transform="translate(91,50) scale(1 1)" clip-path="url(#highcharts-vf640ll-81-)"><path fill="rgb(240, 50, 230)" d="M 285.5 280.5 L 340.5 280.5 A 0 0 0 0 1 340.5 280.5 L 340.5 322.5 A 0 0 0 0 1 340.5 322.5 L 285.5 322.5 A 0 0 0 0 1 285.5 322.5 L 285.5 280.5 A 0 0 0 0 1 285.5 280.5 Z" stroke="rgb(240, 50, 230)" stroke-width="1" opacity="1" filter="none" class="highcharts-point"></path></g><g class="highcharts-markers highcharts-series-14 highcharts-column-series" data-z-index="0.1" opacity="1" transform="translate(91,50) scale(1 1)" clip-path="none"></g><g class="highcharts-series highcharts-series-15 highcharts-column-series" data-z-index="0.1" opacity="1" transform="translate(91,50) scale(1 1)" clip-path="url(#highcharts-vf640ll-81-)"><path fill="url(#highcharts-pattern-1-5485b440167d0d08-export)" d="M 285.5 245.5 L 340.5 245.5 A 0 0 0 0 1 340.5 245.5 L 340.5 280.5 A 0 0 0 0 1 340.5 280.5 L 285.5 280.5 A 0 0 0 0 1 285.5 280.5 L 285.5 245.5 A 0 0 0 0 1 285.5 245.5 Z" stroke="rgb(240, 50, 230)" stroke-width="1" opacity="1" filter="none" class="highcharts-point"></path></g><g class="highcharts-markers highcharts-series-15 highcharts-column-series" data-z-index="0.1" opacity="1" transform="translate(91,50) scale(1 1)" clip-path="none"></g><g class="highcharts-series highcharts-series-16 highcharts-column-series" data-z-index="0.1" opacity="1" transform="translate(91,50) scale(1 1)" clip-path="url(#highcharts-vf640ll-81-)"><path fill="url(#highcharts-pattern-1-51f1afcc13e90894-export)" d="M 288.5 242.5 L 337.5 242.5 A 3 3 0 0 1 340.5 245.5 L 340.5 245.5 A 0 0 0 0 1 340.5 245.5 L 285.5 245.5 A 0 0 0 0 1 285.5 245.5 L 285.5 245.5 A 3 3 0 0 1 288.5 242.5 Z" stroke="rgb(240, 50, 230)" stroke-width="1" opacity="1" filter="none" class="highcharts-point"></path></g><g class="highcharts-markers highcharts-series-16 highcharts-column-series" data-z-index="0.1" opacity="1" transform="translate(91,50) scale(1 1)" clip-path="none"></g><g class="highcharts-series highcharts-series-17 highcharts-column-series" data-z-index="0.1" opacity="1" transform="translate(91,50) scale(1 1)" clip-path="url(#highcharts-vf640ll-81-)"><path fill="rgb(210, 245, 60)" d="M 344.5 232.5 L 399.5 232.5 A 0 0 0 0 1 399.5 232.5 L 399.5 322.5 A 0 0 0 0 1 399.5 322.5 L 344.5 322.5 A 0 0 0 0 1 344.5 322.5 L 344.5 232.5 A 0 0 0 0 1 344.5 232.5 Z" stroke="rgb(210, 245, 60)" stroke-width="1" opacity="1" filter="none" class="highcharts-point"></path></g><g class="highcharts-markers highcharts-series-17 highcharts-column-series" data-z-index="0.1" opacity="1" transform="translate(91,50) scale(1 1)" clip-path="none"></g><g class="highcharts-series highcharts-series-18 highcharts-column-series" data-z-index="0.1" opacity="1" transform="translate(91,50) scale(1 1)" clip-path="url(#highcharts-vf640ll-81-)"><path fill="url(#highcharts-pattern-1-264a2642172209d7a-export)" d="M 344.6715728752538 109.5 L 399.3284271247462 109.5 A 3 3 0 0 1 399.5 110.5 L 399.5 232.5 A 0 0 0 0 1 399.5 232.5 L 344.5 232.5 A 0 0 0 0 1 344.5 232.5 L 344.5 110.5 A 3 3 0 0 1 344.6715728752538 109.5 Z" stroke="rgb(210, 245, 60)" stroke-width="1" opacity="1" filter="none" class="highcharts-point"></path></g><g class="highcharts-markers highcharts-series-18 highcharts-column-series" data-z-index="0.1" opacity="1" transform="translate(91,50) scale(1 1)" clip-path="none"></g><g class="highcharts-series highcharts-series-19 highcharts-column-series" data-z-index="0.1" opacity="1" transform="translate(91,50) scale(1 1)" clip-path="url(#highcharts-vf640ll-81-)"><path fill="url(#highcharts-pattern-1-23b621ce174b4a1ee-export)" d="M 347.5 107.5 L 396.5 107.5 A 3 3 0 0 1 399.3284271247462 109.5 L 399.3284271247462 109.5 A 0 0 0 0 1 399.3284271247462 109.5 L 399.3284271247462 109.5 A 0 0 0 0 1 344.6715728752538 109.5 L 344.6715728752538 109.5 A 3 3 0 0 1 347.5 107.5 Z" stroke="rgb(210, 245, 60)" stroke-width="1" opacity="1" filter="none" class="highcharts-point"></path></g><g class="highcharts-markers highcharts-series-19 highcharts-column-series" data-z-index="0.1" opacity="1" transform="translate(91,50) scale(1 1)" clip-path="none"></g><g class="highcharts-series highcharts-series-20 highcharts-column-series" data-z-index="0.1" opacity="1" transform="translate(91,50) scale(1 1)" clip-path="url(#highcharts-vf640ll-81-)"><path fill="rgb(250, 190, 212)" d="M 404.5 200.5 L 459.5 200.5 A 0 0 0 0 1 459.5 200.5 L 459.5 322.5 A 0 0 0 0 1 459.5 322.5 L 404.5 322.5 A 0 0 0 0 1 404.5 322.5 L 404.5 200.5 A 0 0 0 0 1 404.5 200.5 Z" stroke="rgb(250, 190, 212)" stroke-width="1" opacity="1" filter="none" class="highcharts-point"></path></g><g class="highcharts-markers highcharts-series-20 highcharts-column-series" data-z-index="0.1" opacity="1" transform="translate(91,50) scale(1 1)" clip-path="none"></g><g class="highcharts-series highcharts-series-21 highcharts-column-series" data-z-index="0.1" opacity="1" transform="translate(91,50) scale(1 1)" clip-path="url(#highcharts-vf640ll-81-)"><path fill="url(#highcharts-pattern-1-4edb7ef2175945ea0-export)" d="M 407.5 122.5 L 456.5 122.5 A 3 3 0 0 1 459.5 125.5 L 459.5 200.5 A 0 0 0 0 1 459.5 200.5 L 404.5 200.5 A 0 0 0 0 1 404.5 200.5 L 404.5 125.5 A 3 3 0 0 1 407.5 122.5 Z" stroke="rgb(250, 190, 212)" stroke-width="1" opacity="1" filter="none" class="highcharts-point"></path></g><g class="highcharts-markers highcharts-series-21 highcharts-column-series" data-z-index="0.1" opacity="1" transform="translate(91,50) scale(1 1)" clip-path="none"></g><g class="highcharts-series highcharts-series-22 highcharts-column-series" data-z-index="0.1" opacity="1" transform="translate(91,50) scale(1 1)" clip-path="url(#highcharts-vf640ll-81-)"><path fill="rgb(0, 128, 128)" d="M 463.5 272.5 L 518.5 272.5 A 0 0 0 0 1 518.5 272.5 L 518.5 322.5 A 0 0 0 0 1 518.5 322.5 L 463.5 322.5 A 0 0 0 0 1 463.5 322.5 L 463.5 272.5 A 0 0 0 0 1 463.5 272.5 Z" stroke="rgb(0, 128, 128)" stroke-width="1" opacity="1" filter="none" class="highcharts-point"></path></g><g class="highcharts-markers highcharts-series-22 highcharts-column-series" data-z-index="0.1" opacity="1" transform="translate(91,50) scale(1 1)" clip-path="none"></g><g class="highcharts-series highcharts-series-23 highcharts-column-series" data-z-index="0.1" opacity="1" transform="translate(91,50) scale(1 1)" clip-path="url(#highcharts-vf640ll-81-)"><path fill="url(#highcharts-pattern-1-135e7034614212a48-export)" d="M 466.5 233.5 L 515.5 233.5 A 3 3 0 0 1 518.5 236.5 L 518.5 272.5 A 0 0 0 0 1 518.5 272.5 L 463.5 272.5 A 0 0 0 0 1 463.5 272.5 L 463.5 236.5 A 3 3 0 0 1 466.5 233.5 Z" stroke="rgb(0, 128, 128)" stroke-width="1" opacity="1" filter="none" class="highcharts-point"></path></g><g class="highcharts-markers highcharts-series-23 highcharts-column-series" data-z-index="0.1" opacity="1" transform="translate(91,50) scale(1 1)" clip-path="none"></g><g class="highcharts-series highcharts-series-24 highcharts-column-series" data-z-index="0.1" opacity="1" transform="translate(91,50) scale(1 1)" clip-path="url(#highcharts-vf640ll-81-)"><path fill="rgb(220, 190, 255)" d="M 522.5 312.5 L 577.5 312.5 A 0 0 0 0 1 577.5 312.5 L 577.5 322.5 A 0 0 0 0 1 577.5 322.5 L 522.5 322.5 A 0 0 0 0 1 522.5 322.5 L 522.5 312.5 A 0 0 0 0 1 522.5 312.5 Z" stroke="rgb(220, 190, 255)" stroke-width="1" opacity="1" filter="none" class="highcharts-point"></path></g><g class="highcharts-markers highcharts-series-24 highcharts-column-series" data-z-index="0.1" opacity="1" transform="translate(91,50) scale(1 1)" clip-path="none"></g><g class="highcharts-series highcharts-series-25 highcharts-column-series" data-z-index="0.1" opacity="1" transform="translate(91,50) scale(1 1)" clip-path="url(#highcharts-vf640ll-81-)"><path fill="url(#highcharts-pattern-1-4182fb50174ce563e-export)" d="M 525.5 307.5 L 574.5 307.5 A 3 3 0 0 1 577.5 310.5 L 577.5 312.5 A 0 0 0 0 1 577.5 312.5 L 522.5 312.5 A 0 0 0 0 1 522.5 312.5 L 522.5 310.5 A 3 3 0 0 1 525.5 307.5 Z" stroke="rgb(220, 190, 255)" stroke-width="1" opacity="1" filter="none" class="highcharts-point"></path></g><g class="highcharts-markers highcharts-series-25 highcharts-column-series" data-z-index="0.1" opacity="1" transform="translate(91,50) scale(1 1)" clip-path="none"></g><g class="highcharts-series highcharts-series-26 highcharts-column-series" data-z-index="0.1" opacity="1" transform="translate(91,50) scale(1 1)" clip-path="url(#highcharts-vf640ll-81-)"><path fill="rgb(170, 110, 40)" d="M 582.5 274.5 L 637.5 274.5 A 0 0 0 0 1 637.5 274.5 L 637.5 322.5 A 0 0 0 0 1 637.5 322.5 L 582.5 322.5 A 0 0 0 0 1 582.5 322.5 L 582.5 274.5 A 0 0 0 0 1 582.5 274.5 Z" stroke="rgb(170, 110, 40)" stroke-width="1" opacity="1" filter="none" class="highcharts-point"></path></g><g class="highcharts-markers highcharts-series-26 highcharts-column-series" data-z-index="0.1" opacity="1" transform="translate(91,50) scale(1 1)" clip-path="none"></g><g class="highcharts-series highcharts-series-27 highcharts-column-series" data-z-index="0.1" opacity="1" transform="translate(91,50) scale(1 1)" clip-path="url(#highcharts-vf640ll-81-)"><path fill="url(#highcharts-pattern-1-5f08a83c131cef0ba-export)" d="M 585.5 261.5 L 634.5 261.5 A 3 3 0 0 1 637.5 264.5 L 637.5 274.5 A 0 0 0 0 1 637.5 274.5 L 582.5 274.5 A 0 0 0 0 1 582.5 274.5 L 582.5 264.5 A 3 3 0 0 1 585.5 261.5 Z" stroke="rgb(170, 110, 40)" stroke-width="1" opacity="1" filter="none" class="highcharts-point"></path></g><g class="highcharts-markers highcharts-series-27 highcharts-column-series" data-z-index="0.1" opacity="1" transform="translate(91,50) scale(1 1)" clip-path="none"></g><g class="highcharts-series highcharts-series-28 highcharts-column-series" data-z-index="0.1" opacity="1" transform="translate(91,50) scale(1 1)" clip-path="url(#highcharts-vf640ll-81-)"><path fill="rgb(255, 250, 200)" d="M 641.5 274.5 L 696.5 274.5 A 0 0 0 0 1 696.5 274.5 L 696.5 322.5 A 0 0 0 0 1 696.5 322.5 L 641.5 322.5 A 0 0 0 0 1 641.5 322.5 L 641.5 274.5 A 0 0 0 0 1 641.5 274.5 Z" stroke="rgb(255, 250, 200)" stroke-width="1" opacity="1" filter="none" class="highcharts-point"></path></g><g class="highcharts-markers highcharts-series-28 highcharts-column-series" data-z-index="0.1" opacity="1" transform="translate(91,50) scale(1 1)" clip-path="none"></g><g class="highcharts-series highcharts-series-29 highcharts-column-series" data-z-index="0.1" opacity="1" transform="translate(91,50) scale(1 1)" clip-path="url(#highcharts-vf640ll-81-)"><path fill="url(#highcharts-pattern-1-7be05d1314c172380-export)" d="M 644.5 223.5 L 693.5 223.5 A 3 3 0 0 1 696.5 226.5 L 696.5 274.5 A 0 0 0 0 1 696.5 274.5 L 641.5 274.5 A 0 0 0 0 1 641.5 274.5 L 641.5 226.5 A 3 3 0 0 1 644.5 223.5 Z" stroke="rgb(255, 250, 200)" stroke-width="1" opacity="1" filter="none" class="highcharts-point"></path></g><g class="highcharts-markers highcharts-series-29 highcharts-column-series" data-z-index="0.1" opacity="1" transform="translate(91,50) scale(1 1)" clip-path="none"></g><g class="highcharts-series highcharts-series-30 highcharts-column-series" data-z-index="0.1" opacity="1" transform="translate(91,50) scale(1 1)" clip-path="url(#highcharts-vf640ll-81-)"><path fill="rgb(128, 0, 0)" d="M 700.5 284.5 L 755.5 284.5 A 0 0 0 0 1 755.5 284.5 L 755.5 322.5 A 0 0 0 0 1 755.5 322.5 L 700.5 322.5 A 0 0 0 0 1 700.5 322.5 L 700.5 284.5 A 0 0 0 0 1 700.5 284.5 Z" stroke="rgb(128, 0, 0)" stroke-width="1" opacity="1" filter="none" class="highcharts-point"></path></g><g class="highcharts-markers highcharts-series-30 highcharts-column-series" data-z-index="0.1" opacity="1" transform="translate(91,50) scale(1 1)" clip-path="none"></g><g class="highcharts-series highcharts-series-31 highcharts-column-series" data-z-index="0.1" opacity="1" transform="translate(91,50) scale(1 1)" clip-path="url(#highcharts-vf640ll-81-)"><path fill="url(#highcharts-pattern-1-3b791f731e8d366a-export)" d="M 703.5 199.5 L 752.5 199.5 A 3 3 0 0 1 755.5 202.5 L 755.5 284.5 A 0 0 0 0 1 755.5 284.5 L 700.5 284.5 A 0 0 0 0 1 700.5 284.5 L 700.5 202.5 A 3 3 0 0 1 703.5 199.5 Z" stroke="rgb(128, 0, 0)" stroke-width="1" opacity="1" filter="none" class="highcharts-point"></path></g><g class="highcharts-markers highcharts-series-31 highcharts-column-series" data-z-index="0.1" opacity="1" transform="translate(91,50) scale(1 1)" clip-path="none"></g><g class="highcharts-series highcharts-series-32 highcharts-column-series" data-z-index="0.1" opacity="1" transform="translate(91,50) scale(1 1)" clip-path="url(#highcharts-vf640ll-81-)"><path fill="rgb(170, 255, 195)" d="M 760.5 294.5 L 815.5 294.5 A 0 0 0 0 1 815.5 294.5 L 815.5 322.5 A 0 0 0 0 1 815.5 322.5 L 760.5 322.5 A 0 0 0 0 1 760.5 322.5 L 760.5 294.5 A 0 0 0 0 1 760.5 294.5 Z" stroke="rgb(170, 255, 195)" stroke-width="1" opacity="1" filter="none" class="highcharts-point"></path></g><g class="highcharts-markers highcharts-series-32 highcharts-column-series" data-z-index="0.1" opacity="1" transform="translate(91,50) scale(1 1)" clip-path="none"></g><g class="highcharts-series highcharts-series-33 highcharts-column-series" data-z-index="0.1" opacity="1" transform="translate(91,50) scale(1 1)" clip-path="url(#highcharts-vf640ll-81-)"><path fill="url(#highcharts-pattern-1-1372d309b324638e0-export)" d="M 763.5 277.5 L 812.5 277.5 A 3 3 0 0 1 815.5 280.5 L 815.5 294.5 A 0 0 0 0 1 815.5 294.5 L 760.5 294.5 A 0 0 0 0 1 760.5 294.5 L 760.5 280.5 A 3 3 0 0 1 763.5 277.5 Z" stroke="rgb(170, 255, 195)" stroke-width="1" opacity="1" filter="none" class="highcharts-point"></path></g><g class="highcharts-markers highcharts-series-33 highcharts-column-series" data-z-index="0.1" opacity="1" transform="translate(91,50) scale(1 1)" clip-path="none"></g><g class="highcharts-series highcharts-series-34 highcharts-column-series" data-z-index="0.1" opacity="1" transform="translate(91,50) scale(1 1)" clip-path="url(#highcharts-vf640ll-81-)"><path fill="url(#highcharts-pattern-1-a236c6e542b99fc-export)" d="M 822.5 242.5 L 871.5 242.5 A 3 3 0 0 1 874.5 245.5 L 874.5 322.5 A 0 0 0 0 1 874.5 322.5 L 819.5 322.5 A 0 0 0 0 1 819.5 322.5 L 819.5 245.5 A 3 3 0 0 1 822.5 242.5 Z" stroke="rgb(128, 128, 0)" stroke-width="1" opacity="1" filter="none" class="highcharts-point"></path></g><g class="highcharts-markers highcharts-series-34 highcharts-column-series" data-z-index="0.1" opacity="1" transform="translate(91,50) scale(1 1)" clip-path="none"></g></g><text x="512" text-anchor="middle" class="highcharts-title" data-z-index="4" style="font-size: 16px; color: rgb(51, 51, 51); font-weight: bold; text-align: center; fill: rgb(51, 51, 51);" y="22">Installierte Wind- und Solarleistung in Deutschland in 2025</text><text x="512" text-anchor="middle" class="highcharts-subtitle" data-z-index="4" style="color: rgb(102, 102, 102); font-size: 0.8em; fill: rgb(102, 102, 102);" y="48"></text><text x="512" text-anchor="middle" class="highcharts-caption" data-z-index="4" style="color: rgb(102, 102, 102); font-size: 0.8em; fill: rgb(102, 102, 102);" y="555">Energy-Charts.info; Datenquelle: Bundesnetzagentur (BNetzA);   Letztes Update: 15.08.2025, 11:24 MESZ</text><g class="highcharts-legend highcharts-no-tooltip" data-z-index="7" transform="translate(65,438)"><rect fill="none" class="highcharts-legend-box" rx="0" ry="0" stroke="#999999" stroke-width="0" filter="none" x="0" y="0" width="894" height="91"></rect><g data-z-index="1"><g><g class="highcharts-legend-item highcharts-column-series highcharts-color-undefined highcharts-series-0" data-z-index="1" transform="translate(0,-5)"><text x="21" text-anchor="start" data-z-index="2" style="color: rgb(51, 51, 51); cursor: pointer; font-size: 9px; text-decoration: none; font-weight: bold; fill: rgb(51, 51, 51);" y="12">Baden-W端rttemberg, Solar</text><rect x="3.5" y="4" rx="4.5" ry="4.5" width="9" height="9" fill="rgb(230, 25, 75)" class="highcharts-point" data-z-index="3"></rect></g><g class="highcharts-legend-item highcharts-column-series highcharts-color-undefined highcharts-series-1" data-z-index="1" transform="translate(228.5888671875,-5)"><text x="21" y="12" text-anchor="start" data-z-index="2" style="color: rgb(51, 51, 51); cursor: pointer; font-size: 9px; text-decoration: none; font-weight: bold; fill: rgb(51, 51, 51);">Baden-W端rttemberg, Wind</text><rect x="3.5" y="4" rx="4.5" ry="4.5" width="9" height="9" fill="url(#highcharts-pattern-1-440183212aeadbbe-export)" class="highcharts-point" data-z-index="3"></rect></g><g class="highcharts-legend-item highcharts-column-series highcharts-color-undefined highcharts-series-2" data-z-index="1" transform="translate(457.177734375,-5)"><text x="21" y="12" text-anchor="start" data-z-index="2" style="color: rgb(51, 51, 51); cursor: pointer; font-size: 9px; text-decoration: none; font-weight: bold; fill: rgb(51, 51, 51);">Bayern, Solar</text><rect x="3.5" y="4" rx="4.5" ry="4.5" width="9" height="9" fill="rgb(60, 180, 75)" class="highcharts-point" data-z-index="3"></rect></g><g class="highcharts-legend-item highcharts-column-series highcharts-color-undefined highcharts-series-3" data-z-index="1" transform="translate(685.7666015625,-5)"><text x="21" y="12" text-anchor="start" data-z-index="2" style="color: rgb(51, 51, 51); cursor: pointer; font-size: 9px; text-decoration: none; font-weight: bold; fill: rgb(51, 51, 51);">Bayern, Wind</text><rect x="3.5" y="4" rx="4.5" ry="4.5" width="9" height="9" fill="url(#highcharts-pattern-1-51c4715d1133334d0-export)" class="highcharts-point" data-z-index="3"></rect></g><g class="highcharts-legend-item highcharts-column-series highcharts-color-undefined highcharts-series-6" data-z-index="1" transform="translate(0,7)"><text x="21" y="12" text-anchor="start" data-z-index="2" style="color: rgb(51, 51, 51); cursor: pointer; font-size: 9px; text-decoration: none; font-weight: bold; fill: rgb(51, 51, 51);">Brandenburg, Solar</text><rect x="3.5" y="4" rx="4.5" ry="4.5" width="9" height="9" fill="rgb(0, 130, 200)" class="highcharts-point" data-z-index="3"></rect></g><g class="highcharts-legend-item highcharts-column-series highcharts-color-undefined highcharts-series-7" data-z-index="1" transform="translate(228.5888671875,7)"><text x="21" y="12" text-anchor="start" data-z-index="2" style="color: rgb(51, 51, 51); cursor: pointer; font-size: 9px; text-decoration: none; font-weight: bold; fill: rgb(51, 51, 51);">Brandenburg, Wind</text><rect x="3.5" y="4" rx="4.5" ry="4.5" width="9" height="9" fill="url(#highcharts-pattern-1-1dd3fc76317535f4-export)" class="highcharts-point" data-z-index="3"></rect></g><g class="highcharts-legend-item highcharts-column-series highcharts-color-undefined highcharts-series-12" data-z-index="1" transform="translate(457.177734375,7)"><text x="21" y="12" text-anchor="start" data-z-index="2" style="color: rgb(51, 51, 51); cursor: pointer; font-size: 9px; text-decoration: none; font-weight: bold; fill: rgb(51, 51, 51);">Hessen, Solar</text><rect x="3.5" y="4" rx="4.5" ry="4.5" width="9" height="9" fill="rgb(70, 240, 240)" class="highcharts-point" data-z-index="3"></rect></g><g class="highcharts-legend-item highcharts-column-series highcharts-color-undefined highcharts-series-13" data-z-index="1" transform="translate(685.7666015625,7)"><text x="21" y="12" text-anchor="start" data-z-index="2" style="color: rgb(51, 51, 51); cursor: pointer; font-size: 9px; text-decoration: none; font-weight: bold; fill: rgb(51, 51, 51);">Hessen, Wind</text><rect x="3.5" y="4" rx="4.5" ry="4.5" width="9" height="9" fill="url(#highcharts-pattern-1-142f017b39fec1ea-export)" class="highcharts-point" data-z-index="3"></rect></g><g class="highcharts-legend-item highcharts-column-series highcharts-color-undefined highcharts-series-14" data-z-index="1" transform="translate(0,19)"><text x="21" y="12" text-anchor="start" data-z-index="2" style="color: rgb(51, 51, 51); cursor: pointer; font-size: 9px; text-decoration: none; font-weight: bold; fill: rgb(51, 51, 51);">Mecklenburg-Vorpommern, Solar</text><rect x="3.5" y="4" rx="4.5" ry="4.5" width="9" height="9" fill="rgb(240, 50, 230)" class="highcharts-point" data-z-index="3"></rect></g><g class="highcharts-legend-item highcharts-column-series highcharts-color-undefined highcharts-series-15" data-z-index="1" transform="translate(228.5888671875,19)"><text x="21" y="12" text-anchor="start" data-z-index="2" style="color: rgb(51, 51, 51); cursor: pointer; font-size: 9px; text-decoration: none; font-weight: bold; fill: rgb(51, 51, 51);">Mecklenburg-Vorpommern, Wind</text><rect x="3.5" y="4" rx="4.5" ry="4.5" width="9" height="9" fill="url(#highcharts-pattern-1-5485b440167d0d08-export)" class="highcharts-point" data-z-index="3"></rect></g><g class="highcharts-legend-item highcharts-column-series highcharts-color-undefined highcharts-series-16" data-z-index="1" transform="translate(457.177734375,19)"><text x="21" y="12" text-anchor="start" data-z-index="2" style="color: rgb(51, 51, 51); cursor: pointer; font-size: 9px; text-decoration: none; font-weight: bold; fill: rgb(51, 51, 51);">Mecklenburg-Vorpommern, Wind offshore</text><rect x="3.5" y="4" rx="4.5" ry="4.5" width="9" height="9" fill="url(#highcharts-pattern-1-51f1afcc13e90894-export)" class="highcharts-point" data-z-index="3"></rect></g><g class="highcharts-legend-item highcharts-column-series highcharts-color-undefined highcharts-series-17" data-z-index="1" transform="translate(685.7666015625,19)"><text x="21" y="12" text-anchor="start" data-z-index="2" style="color: rgb(51, 51, 51); cursor: pointer; font-size: 9px; text-decoration: none; font-weight: bold; fill: rgb(51, 51, 51);">Niedersachsen, Solar</text><rect x="3.5" y="4" rx="4.5" ry="4.5" width="9" height="9" fill="rgb(210, 245, 60)" class="highcharts-point" data-z-index="3"></rect></g><g class="highcharts-legend-item highcharts-column-series highcharts-color-undefined highcharts-series-18" data-z-index="1" transform="translate(0,31)"><text x="21" y="12" text-anchor="start" data-z-index="2" style="color: rgb(51, 51, 51); cursor: pointer; font-size: 9px; text-decoration: none; font-weight: bold; fill: rgb(51, 51, 51);">Niedersachsen, Wind</text><rect x="3.5" y="4" rx="4.5" ry="4.5" width="9" height="9" fill="url(#highcharts-pattern-1-264a2642172209d7a-export)" class="highcharts-point" data-z-index="3"></rect></g><g class="highcharts-legend-item highcharts-column-series highcharts-color-undefined highcharts-series-19" data-z-index="1" transform="translate(228.5888671875,31)"><text x="21" y="12" text-anchor="start" data-z-index="2" style="color: rgb(51, 51, 51); cursor: pointer; font-size: 9px; text-decoration: none; font-weight: bold; fill: rgb(51, 51, 51);">Niedersachsen, Wind offshore</text><rect x="3.5" y="4" rx="4.5" ry="4.5" width="9" height="9" fill="url(#highcharts-pattern-1-23b621ce174b4a1ee-export)" class="highcharts-point" data-z-index="3"></rect></g><g class="highcharts-legend-item highcharts-column-series highcharts-color-undefined highcharts-series-20" data-z-index="1" transform="translate(457.177734375,31)"><text x="21" y="12" text-anchor="start" data-z-index="2" style="color: rgb(51, 51, 51); cursor: pointer; font-size: 9px; text-decoration: none; font-weight: bold; fill: rgb(51, 51, 51);">Nordrhein-Westfalen, Solar</text><rect x="3.5" y="4" rx="4.5" ry="4.5" width="9" height="9" fill="rgb(250, 190, 212)" class="highcharts-point" data-z-index="3"></rect></g><g class="highcharts-legend-item highcharts-column-series highcharts-color-undefined highcharts-series-21" data-z-index="1" transform="translate(685.7666015625,31)"><text x="21" y="12" text-anchor="start" data-z-index="2" style="color: rgb(51, 51, 51); cursor: pointer; font-size: 9px; text-decoration: none; font-weight: bold; fill: rgb(51, 51, 51);">Nordrhein-Westfalen, Wind</text><rect x="3.5" y="4" rx="4.5" ry="4.5" width="9" height="9" fill="url(#highcharts-pattern-1-4edb7ef2175945ea0-export)" class="highcharts-point" data-z-index="3"></rect></g><g class="highcharts-legend-item highcharts-column-series highcharts-color-undefined highcharts-series-22" data-z-index="1" transform="translate(0,43)"><text x="21" y="12" text-anchor="start" data-z-index="2" style="color: rgb(51, 51, 51); cursor: pointer; font-size: 9px; text-decoration: none; font-weight: bold; fill: rgb(51, 51, 51);">Rheinland-Pfalz, Solar</text><rect x="3.5" y="4" rx="4.5" ry="4.5" width="9" height="9" fill="rgb(0, 128, 128)" class="highcharts-point" data-z-index="3"></rect></g><g class="highcharts-legend-item highcharts-column-series highcharts-color-undefined highcharts-series-23" data-z-index="1" transform="translate(228.5888671875,43)"><text x="21" y="12" text-anchor="start" data-z-index="2" style="color: rgb(51, 51, 51); cursor: pointer; font-size: 9px; text-decoration: none; font-weight: bold; fill: rgb(51, 51, 51);">Rheinland-Pfalz, Wind</text><rect x="3.5" y="4" rx="4.5" ry="4.5" width="9" height="9" fill="url(#highcharts-pattern-1-135e7034614212a48-export)" class="highcharts-point" data-z-index="3"></rect></g><g class="highcharts-legend-item highcharts-column-series highcharts-color-undefined highcharts-series-24" data-z-index="1" transform="translate(457.177734375,43)"><text x="21" y="12" text-anchor="start" data-z-index="2" style="color: rgb(51, 51, 51); cursor: pointer; font-size: 9px; text-decoration: none; font-weight: bold; fill: rgb(51, 51, 51);">Saarland, Solar</text><rect x="3.5" y="4" rx="4.5" ry="4.5" width="9" height="9" fill="rgb(220, 190, 255)" class="highcharts-point" data-z-index="3"></rect></g><g class="highcharts-legend-item highcharts-column-series highcharts-color-undefined highcharts-series-25" data-z-index="1" transform="translate(685.7666015625,43)"><text x="21" y="12" text-anchor="start" data-z-index="2" style="color: rgb(51, 51, 51); cursor: pointer; font-size: 9px; text-decoration: none; font-weight: bold; fill: rgb(51, 51, 51);">Saarland, Wind</text><rect x="3.5" y="4" rx="4.5" ry="4.5" width="9" height="9" fill="url(#highcharts-pattern-1-4182fb50174ce563e-export)" class="highcharts-point" data-z-index="3"></rect></g><g class="highcharts-legend-item highcharts-column-series highcharts-color-undefined highcharts-series-26" data-z-index="1" transform="translate(0,55)"><text x="21" y="12" text-anchor="start" data-z-index="2" style="color: rgb(51, 51, 51); cursor: pointer; font-size: 9px; text-decoration: none; font-weight: bold; fill: rgb(51, 51, 51);">Sachsen, Solar</text><rect x="3.5" y="4" rx="4.5" ry="4.5" width="9" height="9" fill="rgb(170, 110, 40)" class="highcharts-point" data-z-index="3"></rect></g><g class="highcharts-legend-item highcharts-column-series highcharts-color-undefined highcharts-series-27" data-z-index="1" transform="translate(228.5888671875,55)"><text x="21" y="12" text-anchor="start" data-z-index="2" style="color: rgb(51, 51, 51); cursor: pointer; font-size: 9px; text-decoration: none; font-weight: bold; fill: rgb(51, 51, 51);">Sachsen, Wind</text><rect x="3.5" y="4" rx="4.5" ry="4.5" width="9" height="9" fill="url(#highcharts-pattern-1-5f08a83c131cef0ba-export)" class="highcharts-point" data-z-index="3"></rect></g><g class="highcharts-legend-item highcharts-column-series highcharts-color-undefined highcharts-series-28" data-z-index="1" transform="translate(457.177734375,55)"><text x="21" y="12" text-anchor="start" data-z-index="2" style="color: rgb(51, 51, 51); cursor: pointer; font-size: 9px; text-decoration: none; font-weight: bold; fill: rgb(51, 51, 51);">Sachsen-Anhalt, Solar</text><rect x="3.5" y="4" rx="4.5" ry="4.5" width="9" height="9" fill="rgb(255, 250, 200)" class="highcharts-point" data-z-index="3"></rect></g><g class="highcharts-legend-item highcharts-column-series highcharts-color-undefined highcharts-series-29" data-z-index="1" transform="translate(685.7666015625,55)"><text x="21" y="12" text-anchor="start" data-z-index="2" style="color: rgb(51, 51, 51); cursor: pointer; font-size: 9px; text-decoration: none; font-weight: bold; fill: rgb(51, 51, 51);">Sachsen-Anhalt, Wind</text><rect x="3.5" y="4" rx="4.5" ry="4.5" width="9" height="9" fill="url(#highcharts-pattern-1-7be05d1314c172380-export)" class="highcharts-point" data-z-index="3"></rect></g><g class="highcharts-legend-item highcharts-column-series highcharts-color-undefined highcharts-series-30" data-z-index="1" transform="translate(0,67)"><text x="21" y="12" text-anchor="start" data-z-index="2" style="color: rgb(51, 51, 51); cursor: pointer; font-size: 9px; text-decoration: none; font-weight: bold; fill: rgb(51, 51, 51);">Schleswig-Holstein, Solar</text><rect x="3.5" y="4" rx="4.5" ry="4.5" width="9" height="9" fill="rgb(128, 0, 0)" class="highcharts-point" data-z-index="3"></rect></g><g class="highcharts-legend-item highcharts-column-series highcharts-color-undefined highcharts-series-31" data-z-index="1" transform="translate(228.5888671875,67)"><text x="21" y="12" text-anchor="start" data-z-index="2" style="color: rgb(51, 51, 51); cursor: pointer; font-size: 9px; text-decoration: none; font-weight: bold; fill: rgb(51, 51, 51);">Schleswig-Holstein, Wind</text><rect x="3.5" y="4" rx="4.5" ry="4.5" width="9" height="9" fill="url(#highcharts-pattern-1-3b791f731e8d366a-export)" class="highcharts-point" data-z-index="3"></rect></g><g class="highcharts-legend-item highcharts-column-series highcharts-color-undefined highcharts-series-32" data-z-index="1" transform="translate(457.177734375,67)"><text x="21" y="12" text-anchor="start" data-z-index="2" style="color: rgb(51, 51, 51); cursor: pointer; font-size: 9px; text-decoration: none; font-weight: bold; fill: rgb(51, 51, 51);">Th端ringen, Solar</text><rect x="3.5" y="4" rx="4.5" ry="4.5" width="9" height="9" fill="rgb(170, 255, 195)" class="highcharts-point" data-z-index="3"></rect></g><g class="highcharts-legend-item highcharts-column-series highcharts-color-undefined highcharts-series-33" data-z-index="1" transform="translate(685.7666015625,67)"><text x="21" y="12" text-anchor="start" data-z-index="2" style="color: rgb(51, 51, 51); cursor: pointer; font-size: 9px; text-decoration: none; font-weight: bold; fill: rgb(51, 51, 51);">Th端ringen, Wind</text><rect x="3.5" y="4" rx="4.5" ry="4.5" width="9" height="9" fill="url(#highcharts-pattern-1-1372d309b324638e0-export)" class="highcharts-point" data-z-index="3"></rect></g><g class="highcharts-legend-item highcharts-column-series highcharts-color-undefined highcharts-series-34" data-z-index="1" transform="translate(0,79)"><text x="21" y="12" text-anchor="start" data-z-index="2" style="color: rgb(51, 51, 51); cursor: pointer; font-size: 9px; text-decoration: none; font-weight: bold; fill: rgb(51, 51, 51);">AWZ, Wind offshore</text><rect x="3.5" y="4" rx="4.5" ry="4.5" width="9" height="9" fill="url(#highcharts-pattern-1-a236c6e542b99fc-export)" class="highcharts-point" data-z-index="3"></rect></g></g></g></g><g class="highcharts-axis-labels highcharts-xaxis-labels" data-z-index="7"><text x="552.5" style="color: rgb(51, 51, 51); cursor: default; font-size: 0.8em; fill: rgb(51, 51, 51);" text-anchor="middle" transform="translate(0,0)" y="398" opacity="1">2025</text></g><g class="highcharts-axis-labels highcharts-yaxis-labels" data-z-index="7"><text x="76" style="color: rgb(102, 102, 102); cursor: default; font-size: 0.8em; fill: rgb(102, 102, 102);" text-anchor="end" transform="translate(0,0)" y="375" opacity="1">0</text><text x="76" style="color: rgb(102, 102, 102); cursor: default; font-size: 0.8em; fill: rgb(102, 102, 102);" text-anchor="end" transform="translate(0,0)" y="329" opacity="1">5000</text><text x="76" style="color: rgb(102, 102, 102); cursor: default; font-size: 0.8em; fill: rgb(102, 102, 102);" text-anchor="end" transform="translate(0,0)" y="283" opacity="1">10.000</text><text x="76" style="color: rgb(102, 102, 102); cursor: default; font-size: 0.8em; fill: rgb(102, 102, 102);" text-anchor="end" transform="translate(0,0)" y="237" opacity="1">15.000</text><text x="76" style="color: rgb(102, 102, 102); cursor: default; font-size: 0.8em; fill: rgb(102, 102, 102);" text-anchor="end" transform="translate(0,0)" y="191" opacity="1">20.000</text><text x="76" style="color: rgb(102, 102, 102); cursor: default; font-size: 0.8em; fill: rgb(102, 102, 102);" text-anchor="end" transform="translate(0,0)" y="145" opacity="1">25.000</text><text x="76" style="color: rgb(102, 102, 102); cursor: default; font-size: 0.8em; fill: rgb(102, 102, 102);" text-anchor="end" transform="translate(0,0)" y="99" opacity="1">30.000</text><text x="76" style="color: rgb(102, 102, 102); cursor: default; font-size: 0.8em; fill: rgb(102, 102, 102);" text-anchor="end" transform="translate(0,0)" y="53" opacity="1">35.000</text></g></svg>