<svg xmlns:xlink="http://www.w3.org/1999/xlink" version="1.1" class="highcharts-root" style="font-family: &quot;Lucida Sans Unicode&quot;; font-size: 1rem;" xmlns="http://www.w3.org/2000/svg" width="1024" height="576" viewBox="0 0 1024 576" role="img" aria-label="Installierte Netto-Leistung zur Stromerzeugung in Deutschland"><desc>Created with Highcharts 11.2.0</desc><defs><filter id="highcharts-drop-shadow-1"><feDropShadow dx="1" dy="1" flood-color="#000000" flood-opacity="0.75" stdDeviation="2.5"></feDropShadow></filter><clipPath id="highcharts-9cd3oxt-1226-"><rect x="0" y="0" width="968" height="379" fill="none"></rect></clipPath><clipPath id="highcharts-9cd3oxt-1251-"><rect x="0" y="0" width="968" height="379" fill="none"></rect></clipPath><clipPath id="highcharts-9cd3oxt-1468-"><rect x="0" y="0" width="968" height="379" fill="none"></rect></clipPath></defs><rect fill="white" class="highcharts-background" filter="none" x="0" y="0" width="1024" height="576" rx="0" ry="0"></rect><rect fill="none" class="highcharts-plot-background" x="46" y="50" width="968" height="379" filter="none"></rect><g class="highcharts-pane-group" data-z-index="0"></g><g class="highcharts-grid highcharts-xaxis-grid" data-z-index="1"><path fill="none" stroke="#e6e6e6" stroke-width="0" stroke-dasharray="none" data-z-index="1" class="highcharts-grid-line" d="M 65.5 50 L 65.5 429" opacity="1"></path><path fill="none" stroke="#e6e6e6" stroke-width="0" stroke-dasharray="none" data-z-index="1" class="highcharts-grid-line" d="M 267.5 50 L 267.5 429" opacity="1"></path><path fill="none" stroke="#e6e6e6" stroke-width="0" stroke-dasharray="none" data-z-index="1" class="highcharts-grid-line" d="M 468.5 50 L 468.5 429" opacity="1"></path><path fill="none" stroke="#e6e6e6" stroke-width="0" stroke-dasharray="none" data-z-index="1" class="highcharts-grid-line" d="M 670.5 50 L 670.5 429" opacity="1"></path><path fill="none" stroke="#e6e6e6" stroke-width="0" stroke-dasharray="none" data-z-index="1" class="highcharts-grid-line" d="M 872.5 50 L 872.5 429" opacity="1"></path></g><g class="highcharts-grid highcharts-yaxis-grid" data-z-index="1"><path fill="none" stroke="#e6e6e6" stroke-width="1" stroke-dasharray="none" data-z-index="1" class="highcharts-grid-line" d="M 46 429.5 L 1014 429.5" opacity="1"></path><path fill="none" stroke="#e6e6e6" stroke-width="1" stroke-dasharray="none" data-z-index="1" class="highcharts-grid-line" d="M 46 353.5 L 1014 353.5" opacity="1"></path><path fill="none" stroke="#e6e6e6" stroke-width="1" stroke-dasharray="none" data-z-index="1" class="highcharts-grid-line" d="M 46 277.5 L 1014 277.5" opacity="1"></path><path fill="none" stroke="#e6e6e6" stroke-width="1" stroke-dasharray="none" data-z-index="1" class="highcharts-grid-line" d="M 46 202.5 L 1014 202.5" opacity="1"></path><path fill="none" stroke="#e6e6e6" stroke-width="1" stroke-dasharray="none" data-z-index="1" class="highcharts-grid-line" d="M 46 126.5 L 1014 126.5" opacity="1"></path><path fill="none" stroke="#e6e6e6" stroke-width="1" stroke-dasharray="none" data-z-index="1" class="highcharts-grid-line" d="M 46 49.5 L 1014 49.5" opacity="1"></path></g><g class="highcharts-grid highcharts-yaxis-grid" data-z-index="1"></g><g class="highcharts-grid highcharts-yaxis-grid" data-z-index="1"></g><g class="highcharts-grid highcharts-yaxis-grid" data-z-index="1"></g><g class="highcharts-grid highcharts-yaxis-grid" data-z-index="1"></g><rect fill="none" class="highcharts-plot-border" data-z-index="1" stroke="#cccccc" stroke-width="0" x="46" y="50" width="968" height="379"></rect><g class="highcharts-axis highcharts-xaxis" data-z-index="2"><text x="530" data-z-index="7" text-anchor="middle" transform="translate(0,0)" class="highcharts-axis-title" style="color: rgb(102, 102, 102); font-size: 0.8em; fill: rgb(102, 102, 102);" y="477">Jahr</text><path fill="none" class="highcharts-axis-line" stroke="#333333" stroke-width="1" data-z-index="7" d="M 46 429.5 L 1014 429.5"></path></g><g class="highcharts-axis highcharts-yaxis" data-z-index="2"><path fill="none" class="highcharts-axis-line" stroke="#333333" stroke-width="0" data-z-index="7" d="M 46 50 L 46 429"></path></g><g class="highcharts-axis highcharts-yaxis" data-z-index="2"><text x="0" data-z-index="7" text-anchor="middle" transform="translate(0,0) rotate(90 0 0)" class="highcharts-axis-title" style="color: rgb(102, 102, 102); font-size: 0.8em; font-weight: bold; fill: rgb(102, 102, 102);" visibility="hidden">Kapazität (GWh)</text><path fill="none" class="highcharts-axis-line" stroke="#333333" stroke-width="0" data-z-index="7" d="M 1014 50 L 1014 429" visibility="hidden"></path></g><g class="highcharts-axis highcharts-yaxis" data-z-index="2"><path fill="none" class="highcharts-axis-line" stroke="#333333" stroke-width="0" data-z-index="7" d="M 1014 50 L 1014 429" visibility="hidden"></path></g><g class="highcharts-axis highcharts-yaxis" data-z-index="2"><path fill="none" class="highcharts-axis-line" stroke="#333333" stroke-width="0" data-z-index="7" d="M 1014 50 L 1014 429" visibility="hidden"></path></g><g class="highcharts-axis highcharts-yaxis" data-z-index="2"><path fill="none" class="highcharts-axis-line" stroke="#333333" stroke-width="0" data-z-index="7" d="M 1014 50 L 1014 429" visibility="hidden"></path></g><g class="highcharts-series-group" data-z-index="3" filter="none"><g class="highcharts-series highcharts-series-0 highcharts-column-series" data-z-index="0.1" opacity="1" transform="translate(46,50) scale(1 1)" clip-path="url(#highcharts-9cd3oxt-1251-)"><path fill="rgb(255,0,0)" d="M 3 303 L 37 303 A 0 0 0 0 1 37 303 L 37 380 A 0 0 0 0 1 37 380 L 3 380 A 0 0 0 0 1 3 380 L 3 303 A 0 0 0 0 1 3 303 Z" stroke="#ffffff" stroke-width="0" opacity="1" filter="none" class="highcharts-point"></path><path fill="rgb(255,0,0)" d="M 44 309 L 78 309 A 0 0 0 0 1 78 309 L 78 380 A 0 0 0 0 1 78 380 L 44 380 A 0 0 0 0 1 44 380 L 44 309 A 0 0 0 0 1 44 309 Z" stroke="#ffffff" stroke-width="0" opacity="1" filter="none" class="highcharts-point"></path><path fill="rgb(255,0,0)" d="M 84 313 L 118 313 A 0 0 0 0 1 118 313 L 118 380 A 0 0 0 0 1 118 380 L 84 380 A 0 0 0 0 1 84 380 L 84 313 A 0 0 0 0 1 84 313 Z" stroke="#ffffff" stroke-width="0" opacity="1" filter="none" class="highcharts-point"></path><path fill="rgb(255,0,0)" d="M 124 314 L 158 314 A 0 0 0 0 1 158 314 L 158 380 A 0 0 0 0 1 158 380 L 124 380 A 0 0 0 0 1 124 380 L 124 314 A 0 0 0 0 1 124 314 Z" stroke="#ffffff" stroke-width="0" opacity="1" filter="none" class="highcharts-point"></path><path fill="rgb(255,0,0)" d="M 165 316 L 199 316 A 0 0 0 0 1 199 316 L 199 380 A 0 0 0 0 1 199 380 L 165 380 A 0 0 0 0 1 165 380 L 165 316 A 0 0 0 0 1 165 316 Z" stroke="#ffffff" stroke-width="0" opacity="1" filter="none" class="highcharts-point"></path><path fill="rgb(255,0,0)" d="M 205 319 L 239 319 A 0 0 0 0 1 239 319 L 239 380 A 0 0 0 0 1 239 380 L 205 380 A 0 0 0 0 1 205 380 L 205 319 A 0 0 0 0 1 205 319 Z" stroke="#ffffff" stroke-width="0" opacity="1" filter="none" class="highcharts-point"></path><path fill="rgb(255,0,0)" d="M 245 320 L 279 320 A 0 0 0 0 1 279 320 L 279 380 A 0 0 0 0 1 279 380 L 245 380 A 0 0 0 0 1 245 380 L 245 320 A 0 0 0 0 1 245 320 Z" stroke="#ffffff" stroke-width="0" opacity="1" filter="none" class="highcharts-point"></path><path fill="rgb(255,0,0)" d="M 286 323 L 320 323 A 0 0 0 0 1 320 323 L 320 380 A 0 0 0 0 1 320 380 L 286 380 A 0 0 0 0 1 286 380 L 286 323 A 0 0 0 0 1 286 323 Z" stroke="#ffffff" stroke-width="0" opacity="1" filter="none" class="highcharts-point"></path><path fill="rgb(255,0,0)" d="M 326 328 L 360 328 A 0 0 0 0 1 360 328 L 360 380 A 0 0 0 0 1 360 380 L 326 380 A 0 0 0 0 1 326 380 L 326 328 A 0 0 0 0 1 326 328 Z" stroke="#ffffff" stroke-width="0" opacity="1" filter="none" class="highcharts-point"></path><path fill="rgb(255,0,0)" d="M 366 351 L 400 351 A 0 0 0 0 1 400 351 L 400 380 A 0 0 0 0 1 400 380 L 366 380 A 0 0 0 0 1 366 380 L 366 351 A 0 0 0 0 1 366 351 Z" stroke="#ffffff" stroke-width="0" opacity="1" filter="none" class="highcharts-point"></path><path fill="rgb(255,0,0)" d="M 407 353 L 441 353 A 0 0 0 0 1 441 353 L 441 380 A 0 0 0 0 1 441 380 L 407 380 A 0 0 0 0 1 407 380 L 407 353 A 0 0 0 0 1 407 353 Z" stroke="#ffffff" stroke-width="0" opacity="1" filter="none" class="highcharts-point"></path><path fill="rgb(255,0,0)" d="M 447 354 L 481 354 A 0 0 0 0 1 481 354 L 481 380 A 0 0 0 0 1 481 380 L 447 380 A 0 0 0 0 1 447 380 L 447 354 A 0 0 0 0 1 447 354 Z" stroke="#ffffff" stroke-width="0" opacity="1" filter="none" class="highcharts-point"></path><path fill="rgb(255,0,0)" d="M 487 355 L 521 355 A 0 0 0 0 1 521 355 L 521 380 A 0 0 0 0 1 521 380 L 487 380 A 0 0 0 0 1 487 380 L 487 355 A 0 0 0 0 1 487 355 Z" stroke="#ffffff" stroke-width="0" opacity="1" filter="none" class="highcharts-point"></path><path fill="rgb(255,0,0)" d="M 528 359 L 562 359 A 0 0 0 0 1 562 359 L 562 380 A 0 0 0 0 1 562 380 L 528 380 A 0 0 0 0 1 528 380 L 528 359 A 0 0 0 0 1 528 359 Z" stroke="#ffffff" stroke-width="0" opacity="1" filter="none" class="highcharts-point"></path><path fill="rgb(255,0,0)" d="M 568 360 L 602 360 A 0 0 0 0 1 602 360 L 602 380 A 0 0 0 0 1 602 380 L 568 380 A 0 0 0 0 1 568 380 L 568 360 A 0 0 0 0 1 568 360 Z" stroke="#ffffff" stroke-width="0" opacity="1" filter="none" class="highcharts-point"></path><path fill="rgb(255,0,0)" d="M 608 360 L 642 360 A 0 0 0 0 1 642 360 L 642 380 A 0 0 0 0 1 642 380 L 608 380 A 0 0 0 0 1 608 380 L 608 360 A 0 0 0 0 1 608 360 Z" stroke="#ffffff" stroke-width="0" opacity="1" filter="none" class="highcharts-point"></path><path fill="rgb(255,0,0)" d="M 649 363 L 683 363 A 0 0 0 0 1 683 363 L 683 380 A 0 0 0 0 1 683 380 L 649 380 A 0 0 0 0 1 649 380 L 649 363 A 0 0 0 0 1 649 363 Z" stroke="#ffffff" stroke-width="0" opacity="1" filter="none" class="highcharts-point"></path><path fill="rgb(255,0,0)" d="M 689 363 L 723 363 A 0 0 0 0 1 723 363 L 723 380 A 0 0 0 0 1 723 380 L 689 380 A 0 0 0 0 1 689 380 L 689 363 A 0 0 0 0 1 689 363 Z" stroke="#ffffff" stroke-width="0" opacity="1" filter="none" class="highcharts-point"></path><path fill="rgb(255,0,0)" d="M 729 366 L 763 366 A 0 0 0 0 1 763 366 L 763 380 A 0 0 0 0 1 763 380 L 729 380 A 0 0 0 0 1 729 380 L 729 366 A 0 0 0 0 1 729 366 Z" stroke="#ffffff" stroke-width="0" opacity="1" filter="none" class="highcharts-point"></path><path fill="rgb(255,0,0)" d="M 770 366 L 804 366 A 0 0 0 0 1 804 366 L 804 380 A 0 0 0 0 1 804 380 L 770 380 A 0 0 0 0 1 770 380 L 770 366 A 0 0 0 0 1 770 366 Z" stroke="#ffffff" stroke-width="0" opacity="1" filter="none" class="highcharts-point"></path><path fill="rgb(255,0,0)" d="M 810 373 L 844 373 A 0 0 0 0 1 844 373 L 844 380 A 0 0 0 0 1 844 380 L 810 380 A 0 0 0 0 1 810 380 L 810 373 A 0 0 0 0 1 810 373 Z" stroke="#ffffff" stroke-width="0" opacity="1" filter="none" class="highcharts-point"></path><path fill="rgb(255,0,0)" d="M 850 380 L 884 380 A 0 0 0 0 1 884 380 L 884 380 A 0 0 0 0 1 884 380 L 850 380 A 0 0 0 0 1 850 380 L 850 380 A 0 0 0 0 1 850 380 Z" stroke="#ffffff" stroke-width="0" opacity="1" filter="none" class="highcharts-point"></path><path fill="rgb(255,0,0)" d="M 891 380 L 925 380 A 0 0 0 0 1 925 380 L 925 380 A 0 0 0 0 1 925 380 L 891 380 A 0 0 0 0 1 891 380 L 891 380 A 0 0 0 0 1 891 380 Z" stroke="#ffffff" stroke-width="0" opacity="1" filter="none" class="highcharts-point"></path><path fill="rgb(255,0,0)" d="M 931 380 L 965 380 A 0 0 0 0 1 965 380 L 965 380 A 0 0 0 0 1 965 380 L 931 380 A 0 0 0 0 1 931 380 L 931 380 A 0 0 0 0 1 931 380 Z" stroke="#ffffff" stroke-width="0" opacity="1" filter="none" class="highcharts-point"></path></g><g class="highcharts-markers highcharts-series-0 highcharts-column-series" data-z-index="0.1" opacity="1" transform="translate(46,50) scale(1 1)" clip-path="none"></g><g class="highcharts-series highcharts-series-1 highcharts-column-series" data-z-index="0.1" opacity="1" transform="translate(46,50) scale(1 1)" clip-path="url(#highcharts-9cd3oxt-1251-)"><path fill="rgb(150, 125, 100)" d="M 3 237 L 37 237 A 0 0 0 0 1 37 237 L 37 303 A 0 0 0 0 1 37 303 L 3 303 A 0 0 0 0 1 3 303 L 3 237 A 0 0 0 0 1 3 237 Z" stroke="#ffffff" stroke-width="0" opacity="1" filter="none" class="highcharts-point"></path><path fill="rgb(150, 125, 100)" d="M 44 241 L 78 241 A 0 0 0 0 1 78 241 L 78 309 A 0 0 0 0 1 78 309 L 44 309 A 0 0 0 0 1 44 309 L 44 241 A 0 0 0 0 1 44 241 Z" stroke="#ffffff" stroke-width="0" opacity="1" filter="none" class="highcharts-point"></path><path fill="rgb(150, 125, 100)" d="M 84 248 L 118 248 A 0 0 0 0 1 118 248 L 118 313 A 0 0 0 0 1 118 313 L 84 313 A 0 0 0 0 1 84 313 L 84 248 A 0 0 0 0 1 84 248 Z" stroke="#ffffff" stroke-width="0" opacity="1" filter="none" class="highcharts-point"></path><path fill="rgb(150, 125, 100)" d="M 124 251 L 158 251 A 0 0 0 0 1 158 251 L 158 314 A 0 0 0 0 1 158 314 L 124 314 A 0 0 0 0 1 124 314 L 124 251 A 0 0 0 0 1 124 251 Z" stroke="#ffffff" stroke-width="0" opacity="1" filter="none" class="highcharts-point"></path><path fill="rgb(150, 125, 100)" d="M 165 255 L 199 255 A 0 0 0 0 1 199 255 L 199 316 A 0 0 0 0 1 199 316 L 165 316 A 0 0 0 0 1 165 316 L 165 255 A 0 0 0 0 1 165 255 Z" stroke="#ffffff" stroke-width="0" opacity="1" filter="none" class="highcharts-point"></path><path fill="rgb(150, 125, 100)" d="M 205 257 L 239 257 A 0 0 0 0 1 239 257 L 239 319 A 0 0 0 0 1 239 319 L 205 319 A 0 0 0 0 1 205 319 L 205 257 A 0 0 0 0 1 205 257 Z" stroke="#ffffff" stroke-width="0" opacity="1" filter="none" class="highcharts-point"></path><path fill="rgb(150, 125, 100)" d="M 245 262 L 279 262 A 0 0 0 0 1 279 262 L 279 320 A 0 0 0 0 1 279 320 L 245 320 A 0 0 0 0 1 245 320 L 245 262 A 0 0 0 0 1 245 262 Z" stroke="#ffffff" stroke-width="0" opacity="1" filter="none" class="highcharts-point"></path><path fill="rgb(150, 125, 100)" d="M 286 268 L 320 268 A 0 0 0 0 1 320 268 L 320 323 A 0 0 0 0 1 320 323 L 286 323 A 0 0 0 0 1 286 323 L 286 268 A 0 0 0 0 1 286 268 Z" stroke="#ffffff" stroke-width="0" opacity="1" filter="none" class="highcharts-point"></path><path fill="rgb(150, 125, 100)" d="M 326 276 L 360 276 A 0 0 0 0 1 360 276 L 360 328 A 0 0 0 0 1 360 328 L 326 328 A 0 0 0 0 1 326 328 L 326 276 A 0 0 0 0 1 326 276 Z" stroke="#ffffff" stroke-width="0" opacity="1" filter="none" class="highcharts-point"></path><path fill="rgb(150, 125, 100)" d="M 366 303 L 400 303 A 0 0 0 0 1 400 303 L 400 351 A 0 0 0 0 1 400 351 L 366 351 A 0 0 0 0 1 366 351 L 366 303 A 0 0 0 0 1 366 303 Z" stroke="#ffffff" stroke-width="0" opacity="1" filter="none" class="highcharts-point"></path><path fill="rgb(150, 125, 100)" d="M 407 306 L 441 306 A 0 0 0 0 1 441 306 L 441 353 A 0 0 0 0 1 441 353 L 407 353 A 0 0 0 0 1 407 353 L 407 306 A 0 0 0 0 1 407 306 Z" stroke="#ffffff" stroke-width="0" opacity="1" filter="none" class="highcharts-point"></path><path fill="rgb(150, 125, 100)" d="M 447 309 L 481 309 A 0 0 0 0 1 481 309 L 481 354 A 0 0 0 0 1 481 354 L 447 354 A 0 0 0 0 1 447 354 L 447 309 A 0 0 0 0 1 447 309 Z" stroke="#ffffff" stroke-width="0" opacity="1" filter="none" class="highcharts-point"></path><path fill="rgb(150, 125, 100)" d="M 487 312 L 521 312 A 0 0 0 0 1 521 312 L 521 355 A 0 0 0 0 1 521 355 L 487 355 A 0 0 0 0 1 487 355 L 487 312 A 0 0 0 0 1 487 312 Z" stroke="#ffffff" stroke-width="0" opacity="1" filter="none" class="highcharts-point"></path><path fill="rgb(150, 125, 100)" d="M 528 317 L 562 317 A 0 0 0 0 1 562 317 L 562 359 A 0 0 0 0 1 562 359 L 528 359 A 0 0 0 0 1 528 359 L 528 317 A 0 0 0 0 1 528 317 Z" stroke="#ffffff" stroke-width="0" opacity="1" filter="none" class="highcharts-point"></path><path fill="rgb(150, 125, 100)" d="M 568 319 L 602 319 A 0 0 0 0 1 602 319 L 602 360 A 0 0 0 0 1 602 360 L 568 360 A 0 0 0 0 1 568 360 L 568 319 A 0 0 0 0 1 568 319 Z" stroke="#ffffff" stroke-width="0" opacity="1" filter="none" class="highcharts-point"></path><path fill="rgb(150, 125, 100)" d="M 608 321 L 642 321 A 0 0 0 0 1 642 321 L 642 360 A 0 0 0 0 1 642 360 L 608 360 A 0 0 0 0 1 608 360 L 608 321 A 0 0 0 0 1 608 321 Z" stroke="#ffffff" stroke-width="0" opacity="1" filter="none" class="highcharts-point"></path><path fill="rgb(150, 125, 100)" d="M 649 325 L 683 325 A 0 0 0 0 1 683 325 L 683 363 A 0 0 0 0 1 683 363 L 649 363 A 0 0 0 0 1 649 363 L 649 325 A 0 0 0 0 1 649 325 Z" stroke="#ffffff" stroke-width="0" opacity="1" filter="none" class="highcharts-point"></path><path fill="rgb(150, 125, 100)" d="M 689 326 L 723 326 A 0 0 0 0 1 723 326 L 723 363 A 0 0 0 0 1 723 363 L 689 363 A 0 0 0 0 1 689 363 L 689 326 A 0 0 0 0 1 689 326 Z" stroke="#ffffff" stroke-width="0" opacity="1" filter="none" class="highcharts-point"></path><path fill="rgb(150, 125, 100)" d="M 729 331 L 763 331 A 0 0 0 0 1 763 331 L 763 366 A 0 0 0 0 1 763 366 L 729 366 A 0 0 0 0 1 729 366 L 729 331 A 0 0 0 0 1 729 331 Z" stroke="#ffffff" stroke-width="0" opacity="1" filter="none" class="highcharts-point"></path><path fill="rgb(150, 125, 100)" d="M 770 333 L 804 333 A 0 0 0 0 1 804 333 L 804 366 A 0 0 0 0 1 804 366 L 770 366 A 0 0 0 0 1 770 366 L 770 333 A 0 0 0 0 1 770 333 Z" stroke="#ffffff" stroke-width="0" opacity="1" filter="none" class="highcharts-point"></path><path fill="rgb(150, 125, 100)" d="M 810 343 L 844 343 A 0 0 0 0 1 844 343 L 844 373 A 0 0 0 0 1 844 373 L 810 373 A 0 0 0 0 1 810 373 L 810 343 A 0 0 0 0 1 810 343 Z" stroke="#ffffff" stroke-width="0" opacity="1" filter="none" class="highcharts-point"></path><path fill="rgb(150, 125, 100)" d="M 850 352 L 884 352 A 0 0 0 0 1 884 352 L 884 380 A 0 0 0 0 1 884 380 L 850 380 A 0 0 0 0 1 850 380 L 850 352 A 0 0 0 0 1 850 352 Z" stroke="#ffffff" stroke-width="0" opacity="1" filter="none" class="highcharts-point"></path><path fill="rgb(150, 125, 100)" d="M 891 358 L 925 358 A 0 0 0 0 1 925 358 L 925 380 A 0 0 0 0 1 925 380 L 891 380 A 0 0 0 0 1 891 380 L 891 358 A 0 0 0 0 1 891 358 Z" stroke="#ffffff" stroke-width="0" opacity="1" filter="none" class="highcharts-point"></path><path fill="rgb(150, 125, 100)" d="M 931 358 L 965 358 A 0 0 0 0 1 965 358 L 965 380 A 0 0 0 0 1 965 380 L 931 380 A 0 0 0 0 1 931 380 L 931 358 A 0 0 0 0 1 931 358 Z" stroke="#ffffff" stroke-width="0" opacity="1" filter="none" class="highcharts-point"></path></g><g class="highcharts-markers highcharts-series-1 highcharts-column-series" data-z-index="0.1" opacity="1" transform="translate(46,50) scale(1 1)" clip-path="none"></g><g class="highcharts-series highcharts-series-2 highcharts-column-series" data-z-index="0.1" opacity="1" transform="translate(46,50) scale(1 1)" clip-path="url(#highcharts-9cd3oxt-1251-)"><path fill="rgb(50,50,50)" d="M 3 144 L 37 144 A 0 0 0 0 1 37 144 L 37 237 A 0 0 0 0 1 37 237 L 3 237 A 0 0 0 0 1 3 237 L 3 144 A 0 0 0 0 1 3 144 Z" stroke="#ffffff" stroke-width="0" opacity="1" filter="none" class="highcharts-point"></path><path fill="rgb(50,50,50)" d="M 44 148 L 78 148 A 0 0 0 0 1 78 148 L 78 241 A 0 0 0 0 1 78 241 L 44 241 A 0 0 0 0 1 44 241 L 44 148 A 0 0 0 0 1 44 148 Z" stroke="#ffffff" stroke-width="0" opacity="1" filter="none" class="highcharts-point"></path><path fill="rgb(50,50,50)" d="M 84 154 L 118 154 A 0 0 0 0 1 118 154 L 118 248 A 0 0 0 0 1 118 248 L 84 248 A 0 0 0 0 1 84 248 L 84 154 A 0 0 0 0 1 84 154 Z" stroke="#ffffff" stroke-width="0" opacity="1" filter="none" class="highcharts-point"></path><path fill="rgb(50,50,50)" d="M 124 166 L 158 166 A 0 0 0 0 1 158 166 L 158 251 A 0 0 0 0 1 158 251 L 124 251 A 0 0 0 0 1 124 251 L 124 166 A 0 0 0 0 1 124 166 Z" stroke="#ffffff" stroke-width="0" opacity="1" filter="none" class="highcharts-point"></path><path fill="rgb(50,50,50)" d="M 165 174 L 199 174 A 0 0 0 0 1 199 174 L 199 255 A 0 0 0 0 1 199 255 L 165 255 A 0 0 0 0 1 165 255 L 165 174 A 0 0 0 0 1 165 174 Z" stroke="#ffffff" stroke-width="0" opacity="1" filter="none" class="highcharts-point"></path><path fill="rgb(50,50,50)" d="M 205 178 L 239 178 A 0 0 0 0 1 239 178 L 239 257 A 0 0 0 0 1 239 257 L 205 257 A 0 0 0 0 1 205 257 L 205 178 A 0 0 0 0 1 205 178 Z" stroke="#ffffff" stroke-width="0" opacity="1" filter="none" class="highcharts-point"></path><path fill="rgb(50,50,50)" d="M 245 184 L 279 184 A 0 0 0 0 1 279 184 L 279 262 A 0 0 0 0 1 279 262 L 245 262 A 0 0 0 0 1 245 262 L 245 184 A 0 0 0 0 1 245 184 Z" stroke="#ffffff" stroke-width="0" opacity="1" filter="none" class="highcharts-point"></path><path fill="rgb(50,50,50)" d="M 286 196 L 320 196 A 0 0 0 0 1 320 196 L 320 268 A 0 0 0 0 1 320 268 L 286 268 A 0 0 0 0 1 286 268 L 286 196 A 0 0 0 0 1 286 196 Z" stroke="#ffffff" stroke-width="0" opacity="1" filter="none" class="highcharts-point"></path><path fill="rgb(50,50,50)" d="M 326 207 L 360 207 A 0 0 0 0 1 360 207 L 360 276 A 0 0 0 0 1 360 276 L 326 276 A 0 0 0 0 1 326 276 L 326 207 A 0 0 0 0 1 326 207 Z" stroke="#ffffff" stroke-width="0" opacity="1" filter="none" class="highcharts-point"></path><path fill="rgb(50,50,50)" d="M 366 241 L 400 241 A 0 0 0 0 1 400 241 L 400 303 A 0 0 0 0 1 400 303 L 366 303 A 0 0 0 0 1 366 303 L 366 241 A 0 0 0 0 1 366 241 Z" stroke="#ffffff" stroke-width="0" opacity="1" filter="none" class="highcharts-point"></path><path fill="rgb(50,50,50)" d="M 407 249 L 441 249 A 0 0 0 0 1 441 249 L 441 306 A 0 0 0 0 1 441 306 L 407 306 A 0 0 0 0 1 407 306 L 407 249 A 0 0 0 0 1 407 249 Z" stroke="#ffffff" stroke-width="0" opacity="1" filter="none" class="highcharts-point"></path><path fill="rgb(50,50,50)" d="M 447 254 L 481 254 A 0 0 0 0 1 481 254 L 481 309 A 0 0 0 0 1 481 309 L 447 309 A 0 0 0 0 1 447 309 L 447 254 A 0 0 0 0 1 447 254 Z" stroke="#ffffff" stroke-width="0" opacity="1" filter="none" class="highcharts-point"></path><path fill="rgb(50,50,50)" d="M 487 259 L 521 259 A 0 0 0 0 1 521 259 L 521 312 A 0 0 0 0 1 521 312 L 487 312 A 0 0 0 0 1 487 312 L 487 259 A 0 0 0 0 1 487 259 Z" stroke="#ffffff" stroke-width="0" opacity="1" filter="none" class="highcharts-point"></path><path fill="rgb(50,50,50)" d="M 528 260 L 562 260 A 0 0 0 0 1 562 260 L 562 317 A 0 0 0 0 1 562 317 L 528 317 A 0 0 0 0 1 528 317 L 528 260 A 0 0 0 0 1 528 260 Z" stroke="#ffffff" stroke-width="0" opacity="1" filter="none" class="highcharts-point"></path><path fill="rgb(50,50,50)" d="M 568 267 L 602 267 A 0 0 0 0 1 602 267 L 602 319 A 0 0 0 0 1 602 319 L 568 319 A 0 0 0 0 1 568 319 L 568 267 A 0 0 0 0 1 568 267 Z" stroke="#ffffff" stroke-width="0" opacity="1" filter="none" class="highcharts-point"></path><path fill="rgb(50,50,50)" d="M 608 276 L 642 276 A 0 0 0 0 1 642 276 L 642 321 A 0 0 0 0 1 642 321 L 608 321 A 0 0 0 0 1 608 321 L 608 276 A 0 0 0 0 1 608 276 Z" stroke="#ffffff" stroke-width="0" opacity="1" filter="none" class="highcharts-point"></path><path fill="rgb(50,50,50)" d="M 649 282 L 683 282 A 0 0 0 0 1 683 282 L 683 325 A 0 0 0 0 1 683 325 L 649 325 A 0 0 0 0 1 649 325 L 649 282 A 0 0 0 0 1 649 282 Z" stroke="#ffffff" stroke-width="0" opacity="1" filter="none" class="highcharts-point"></path><path fill="rgb(50,50,50)" d="M 689 286 L 723 286 A 0 0 0 0 1 723 286 L 723 326 A 0 0 0 0 1 723 326 L 689 326 A 0 0 0 0 1 689 326 L 689 286 A 0 0 0 0 1 689 286 Z" stroke="#ffffff" stroke-width="0" opacity="1" filter="none" class="highcharts-point"></path><path fill="rgb(50,50,50)" d="M 729 291 L 763 291 A 0 0 0 0 1 763 291 L 763 331 A 0 0 0 0 1 763 331 L 729 331 A 0 0 0 0 1 729 331 L 729 291 A 0 0 0 0 1 729 291 Z" stroke="#ffffff" stroke-width="0" opacity="1" filter="none" class="highcharts-point"></path><path fill="rgb(50,50,50)" d="M 770 301 L 804 301 A 0 0 0 0 1 804 301 L 804 333 A 0 0 0 0 1 804 333 L 770 333 A 0 0 0 0 1 770 333 L 770 301 A 0 0 0 0 1 770 301 Z" stroke="#ffffff" stroke-width="0" opacity="1" filter="none" class="highcharts-point"></path><path fill="rgb(50,50,50)" d="M 810 313 L 844 313 A 0 0 0 0 1 844 313 L 844 343 A 0 0 0 0 1 844 343 L 810 343 A 0 0 0 0 1 810 343 L 810 313 A 0 0 0 0 1 810 313 Z" stroke="#ffffff" stroke-width="0" opacity="1" filter="none" class="highcharts-point"></path><path fill="rgb(50,50,50)" d="M 850 324 L 884 324 A 0 0 0 0 1 884 324 L 884 352 A 0 0 0 0 1 884 352 L 850 352 A 0 0 0 0 1 850 352 L 850 324 A 0 0 0 0 1 850 324 Z" stroke="#ffffff" stroke-width="0" opacity="1" filter="none" class="highcharts-point"></path><path fill="rgb(50,50,50)" d="M 891 335 L 925 335 A 0 0 0 0 1 925 335 L 925 358 A 0 0 0 0 1 925 358 L 891 358 A 0 0 0 0 1 891 358 L 891 335 A 0 0 0 0 1 891 335 Z" stroke="#ffffff" stroke-width="0" opacity="1" filter="none" class="highcharts-point"></path><path fill="rgb(50,50,50)" d="M 931 336 L 965 336 A 0 0 0 0 1 965 336 L 965 358 A 0 0 0 0 1 965 358 L 931 358 A 0 0 0 0 1 931 358 L 931 336 A 0 0 0 0 1 931 336 Z" stroke="#ffffff" stroke-width="0" opacity="1" filter="none" class="highcharts-point"></path></g><g class="highcharts-markers highcharts-series-2 highcharts-column-series" data-z-index="0.1" opacity="1" transform="translate(46,50) scale(1 1)" clip-path="none"></g><g class="highcharts-series highcharts-series-3 highcharts-column-series" data-z-index="0.1" opacity="1" transform="translate(46,50) scale(1 1)" clip-path="url(#highcharts-9cd3oxt-1251-)"><path fill="rgb(250, 150, 75)" d="M 3 78 L 37 78 A 0 0 0 0 1 37 78 L 37 144 A 0 0 0 0 1 37 144 L 3 144 A 0 0 0 0 1 3 144 L 3 78 A 0 0 0 0 1 3 78 Z" stroke="#ffffff" stroke-width="0" opacity="1" filter="none" class="highcharts-point"></path><path fill="rgb(250, 150, 75)" d="M 44 85 L 78 85 A 0 0 0 0 1 78 85 L 78 148 A 0 0 0 0 1 78 148 L 44 148 A 0 0 0 0 1 44 148 L 44 85 A 0 0 0 0 1 44 85 Z" stroke="#ffffff" stroke-width="0" opacity="1" filter="none" class="highcharts-point"></path><path fill="rgb(250, 150, 75)" d="M 84 93 L 118 93 A 0 0 0 0 1 118 93 L 118 154 A 0 0 0 0 1 118 154 L 84 154 A 0 0 0 0 1 84 154 L 84 93 A 0 0 0 0 1 84 93 Z" stroke="#ffffff" stroke-width="0" opacity="1" filter="none" class="highcharts-point"></path><path fill="rgb(250, 150, 75)" d="M 124 102 L 158 102 A 0 0 0 0 1 158 102 L 158 166 A 0 0 0 0 1 158 166 L 124 166 A 0 0 0 0 1 124 166 L 124 102 A 0 0 0 0 1 124 102 Z" stroke="#ffffff" stroke-width="0" opacity="1" filter="none" class="highcharts-point"></path><path fill="rgb(250, 150, 75)" d="M 165 110 L 199 110 A 0 0 0 0 1 199 110 L 199 174 A 0 0 0 0 1 199 174 L 165 174 A 0 0 0 0 1 165 174 L 165 110 A 0 0 0 0 1 165 110 Z" stroke="#ffffff" stroke-width="0" opacity="1" filter="none" class="highcharts-point"></path><path fill="rgb(250, 150, 75)" d="M 205 116 L 239 116 A 0 0 0 0 1 239 116 L 239 178 A 0 0 0 0 1 239 178 L 205 178 A 0 0 0 0 1 205 178 L 205 116 A 0 0 0 0 1 205 116 Z" stroke="#ffffff" stroke-width="0" opacity="1" filter="none" class="highcharts-point"></path><path fill="rgb(250, 150, 75)" d="M 245 121 L 279 121 A 0 0 0 0 1 279 121 L 279 184 A 0 0 0 0 1 279 184 L 245 184 A 0 0 0 0 1 245 184 L 245 121 A 0 0 0 0 1 245 121 Z" stroke="#ffffff" stroke-width="0" opacity="1" filter="none" class="highcharts-point"></path><path fill="rgb(250, 150, 75)" d="M 286 135 L 320 135 A 0 0 0 0 1 320 135 L 320 196 A 0 0 0 0 1 320 196 L 286 196 A 0 0 0 0 1 286 196 L 286 135 A 0 0 0 0 1 286 135 Z" stroke="#ffffff" stroke-width="0" opacity="1" filter="none" class="highcharts-point"></path><path fill="rgb(250, 150, 75)" d="M 326 149 L 360 149 A 0 0 0 0 1 360 149 L 360 207 A 0 0 0 0 1 360 207 L 326 207 A 0 0 0 0 1 326 207 L 326 149 A 0 0 0 0 1 326 149 Z" stroke="#ffffff" stroke-width="0" opacity="1" filter="none" class="highcharts-point"></path><path fill="rgb(250, 150, 75)" d="M 366 176 L 400 176 A 0 0 0 0 1 400 176 L 400 241 A 0 0 0 0 1 400 241 L 366 241 A 0 0 0 0 1 366 241 L 366 176 A 0 0 0 0 1 366 176 Z" stroke="#ffffff" stroke-width="0" opacity="1" filter="none" class="highcharts-point"></path><path fill="rgb(250, 150, 75)" d="M 407 187 L 441 187 A 0 0 0 0 1 441 187 L 441 249 A 0 0 0 0 1 441 249 L 407 249 A 0 0 0 0 1 407 249 L 407 187 A 0 0 0 0 1 407 187 Z" stroke="#ffffff" stroke-width="0" opacity="1" filter="none" class="highcharts-point"></path><path fill="rgb(250, 150, 75)" d="M 447 193 L 481 193 A 0 0 0 0 1 481 193 L 481 254 A 0 0 0 0 1 481 254 L 447 254 A 0 0 0 0 1 447 254 L 447 193 A 0 0 0 0 1 447 193 Z" stroke="#ffffff" stroke-width="0" opacity="1" filter="none" class="highcharts-point"></path><path fill="rgb(250, 150, 75)" d="M 487 199 L 521 199 A 0 0 0 0 1 521 199 L 521 259 A 0 0 0 0 1 521 259 L 487 259 A 0 0 0 0 1 487 259 L 487 199 A 0 0 0 0 1 487 199 Z" stroke="#ffffff" stroke-width="0" opacity="1" filter="none" class="highcharts-point"></path><path fill="rgb(250, 150, 75)" d="M 528 205 L 562 205 A 0 0 0 0 1 562 205 L 562 260 A 0 0 0 0 1 562 260 L 528 260 A 0 0 0 0 1 528 260 L 528 205 A 0 0 0 0 1 528 205 Z" stroke="#ffffff" stroke-width="0" opacity="1" filter="none" class="highcharts-point"></path><path fill="rgb(250, 150, 75)" d="M 568 211 L 602 211 A 0 0 0 0 1 602 211 L 602 267 A 0 0 0 0 1 602 267 L 568 267 A 0 0 0 0 1 568 267 L 568 211 A 0 0 0 0 1 568 211 Z" stroke="#ffffff" stroke-width="0" opacity="1" filter="none" class="highcharts-point"></path><path fill="rgb(250, 150, 75)" d="M 608 221 L 642 221 A 0 0 0 0 1 642 221 L 642 276 A 0 0 0 0 1 642 276 L 608 276 A 0 0 0 0 1 608 276 L 608 221 A 0 0 0 0 1 608 221 Z" stroke="#ffffff" stroke-width="0" opacity="1" filter="none" class="highcharts-point"></path><path fill="rgb(250, 150, 75)" d="M 649 227 L 683 227 A 0 0 0 0 1 683 227 L 683 282 A 0 0 0 0 1 683 282 L 649 282 A 0 0 0 0 1 649 282 L 649 227 A 0 0 0 0 1 649 227 Z" stroke="#ffffff" stroke-width="0" opacity="1" filter="none" class="highcharts-point"></path><path fill="rgb(250, 150, 75)" d="M 689 232 L 723 232 A 0 0 0 0 1 723 232 L 723 286 A 0 0 0 0 1 723 286 L 689 286 A 0 0 0 0 1 689 286 L 689 232 A 0 0 0 0 1 689 232 Z" stroke="#ffffff" stroke-width="0" opacity="1" filter="none" class="highcharts-point"></path><path fill="rgb(250, 150, 75)" d="M 729 235 L 763 235 A 0 0 0 0 1 763 235 L 763 291 A 0 0 0 0 1 763 291 L 729 291 A 0 0 0 0 1 729 291 L 729 235 A 0 0 0 0 1 729 235 Z" stroke="#ffffff" stroke-width="0" opacity="1" filter="none" class="highcharts-point"></path><path fill="rgb(250, 150, 75)" d="M 770 247 L 804 247 A 0 0 0 0 1 804 247 L 804 301 A 0 0 0 0 1 804 301 L 770 301 A 0 0 0 0 1 770 301 L 770 247 A 0 0 0 0 1 770 247 Z" stroke="#ffffff" stroke-width="0" opacity="1" filter="none" class="highcharts-point"></path><path fill="rgb(250, 150, 75)" d="M 810 255 L 844 255 A 0 0 0 0 1 844 255 L 844 313 A 0 0 0 0 1 844 313 L 810 313 A 0 0 0 0 1 810 313 L 810 255 A 0 0 0 0 1 810 255 Z" stroke="#ffffff" stroke-width="0" opacity="1" filter="none" class="highcharts-point"></path><path fill="rgb(250, 150, 75)" d="M 850 268 L 884 268 A 0 0 0 0 1 884 268 L 884 324 A 0 0 0 0 1 884 324 L 850 324 A 0 0 0 0 1 850 324 L 850 268 A 0 0 0 0 1 850 268 Z" stroke="#ffffff" stroke-width="0" opacity="1" filter="none" class="highcharts-point"></path><path fill="rgb(250, 150, 75)" d="M 891 283 L 925 283 A 0 0 0 0 1 925 283 L 925 335 A 0 0 0 0 1 925 335 L 891 335 A 0 0 0 0 1 891 335 L 891 283 A 0 0 0 0 1 891 283 Z" stroke="#ffffff" stroke-width="0" opacity="1" filter="none" class="highcharts-point"></path><path fill="rgb(250, 150, 75)" d="M 931 284 L 965 284 A 0 0 0 0 1 965 284 L 965 336 A 0 0 0 0 1 965 336 L 931 336 A 0 0 0 0 1 931 336 L 931 284 A 0 0 0 0 1 931 284 Z" stroke="#ffffff" stroke-width="0" opacity="1" filter="none" class="highcharts-point"></path></g><g class="highcharts-markers highcharts-series-3 highcharts-column-series" data-z-index="0.1" opacity="1" transform="translate(46,50) scale(1 1)" clip-path="none"></g><g class="highcharts-series highcharts-series-4 highcharts-column-series" data-z-index="0.1" opacity="1" transform="translate(46,50) scale(1 1)" clip-path="url(#highcharts-9cd3oxt-1251-)"><path fill="rgb(125,100,75)" d="M 3 61 L 37 61 A 0 0 0 0 1 37 61 L 37 78 A 0 0 0 0 1 37 78 L 3 78 A 0 0 0 0 1 3 78 L 3 61 A 0 0 0 0 1 3 61 Z" stroke="#ffffff" stroke-width="0" opacity="1" filter="none" class="highcharts-point"></path><path fill="rgb(125,100,75)" d="M 44 69 L 78 69 A 0 0 0 0 1 78 69 L 78 85 A 0 0 0 0 1 78 85 L 44 85 A 0 0 0 0 1 44 85 L 44 69 A 0 0 0 0 1 44 69 Z" stroke="#ffffff" stroke-width="0" opacity="1" filter="none" class="highcharts-point"></path><path fill="rgb(125,100,75)" d="M 84 76 L 118 76 A 0 0 0 0 1 118 76 L 118 93 A 0 0 0 0 1 118 93 L 84 93 A 0 0 0 0 1 84 93 L 84 76 A 0 0 0 0 1 84 76 Z" stroke="#ffffff" stroke-width="0" opacity="1" filter="none" class="highcharts-point"></path><path fill="rgb(125,100,75)" d="M 124 85 L 158 85 A 0 0 0 0 1 158 85 L 158 102 A 0 0 0 0 1 158 102 L 124 102 A 0 0 0 0 1 124 102 L 124 85 A 0 0 0 0 1 124 85 Z" stroke="#ffffff" stroke-width="0" opacity="1" filter="none" class="highcharts-point"></path><path fill="rgb(125,100,75)" d="M 165 93 L 199 93 A 0 0 0 0 1 199 93 L 199 110 A 0 0 0 0 1 199 110 L 165 110 A 0 0 0 0 1 165 110 L 165 93 A 0 0 0 0 1 165 93 Z" stroke="#ffffff" stroke-width="0" opacity="1" filter="none" class="highcharts-point"></path><path fill="rgb(125,100,75)" d="M 205 100 L 239 100 A 0 0 0 0 1 239 100 L 239 116 A 0 0 0 0 1 239 116 L 205 116 A 0 0 0 0 1 205 116 L 205 100 A 0 0 0 0 1 205 100 Z" stroke="#ffffff" stroke-width="0" opacity="1" filter="none" class="highcharts-point"></path><path fill="rgb(125,100,75)" d="M 245 106 L 279 106 A 0 0 0 0 1 279 106 L 279 121 A 0 0 0 0 1 279 121 L 245 121 A 0 0 0 0 1 245 121 L 245 106 A 0 0 0 0 1 245 106 Z" stroke="#ffffff" stroke-width="0" opacity="1" filter="none" class="highcharts-point"></path><path fill="rgb(125,100,75)" d="M 286 121 L 320 121 A 0 0 0 0 1 320 121 L 320 135 A 0 0 0 0 1 320 135 L 286 135 A 0 0 0 0 1 286 135 L 286 121 A 0 0 0 0 1 286 121 Z" stroke="#ffffff" stroke-width="0" opacity="1" filter="none" class="highcharts-point"></path><path fill="rgb(125,100,75)" d="M 326 134 L 360 134 A 0 0 0 0 1 360 134 L 360 149 A 0 0 0 0 1 360 149 L 326 149 A 0 0 0 0 1 326 149 L 326 134 A 0 0 0 0 1 326 134 Z" stroke="#ffffff" stroke-width="0" opacity="1" filter="none" class="highcharts-point"></path><path fill="rgb(125,100,75)" d="M 366 166 L 400 166 A 0 0 0 0 1 400 166 L 400 176 A 0 0 0 0 1 400 176 L 366 176 A 0 0 0 0 1 366 176 L 366 166 A 0 0 0 0 1 366 166 Z" stroke="#ffffff" stroke-width="0" opacity="1" filter="none" class="highcharts-point"></path><path fill="rgb(125,100,75)" d="M 407 178 L 441 178 A 0 0 0 0 1 441 178 L 441 187 A 0 0 0 0 1 441 187 L 407 187 A 0 0 0 0 1 407 187 L 407 178 A 0 0 0 0 1 407 178 Z" stroke="#ffffff" stroke-width="0" opacity="1" filter="none" class="highcharts-point"></path><path fill="rgb(125,100,75)" d="M 447 184 L 481 184 A 0 0 0 0 1 481 184 L 481 193 A 0 0 0 0 1 481 193 L 447 193 A 0 0 0 0 1 447 193 L 447 184 A 0 0 0 0 1 447 184 Z" stroke="#ffffff" stroke-width="0" opacity="1" filter="none" class="highcharts-point"></path><path fill="rgb(125,100,75)" d="M 487 190 L 521 190 A 0 0 0 0 1 521 190 L 521 199 A 0 0 0 0 1 521 199 L 487 199 A 0 0 0 0 1 487 199 L 487 190 A 0 0 0 0 1 487 190 Z" stroke="#ffffff" stroke-width="0" opacity="1" filter="none" class="highcharts-point"></path><path fill="rgb(125,100,75)" d="M 528 196 L 562 196 A 0 0 0 0 1 562 196 L 562 205 A 0 0 0 0 1 562 205 L 528 205 A 0 0 0 0 1 528 205 L 528 196 A 0 0 0 0 1 528 196 Z" stroke="#ffffff" stroke-width="0" opacity="1" filter="none" class="highcharts-point"></path><path fill="rgb(125,100,75)" d="M 568 202 L 602 202 A 0 0 0 0 1 602 202 L 602 211 A 0 0 0 0 1 602 211 L 568 211 A 0 0 0 0 1 568 211 L 568 202 A 0 0 0 0 1 568 202 Z" stroke="#ffffff" stroke-width="0" opacity="1" filter="none" class="highcharts-point"></path><path fill="rgb(125,100,75)" d="M 608 212 L 642 212 A 0 0 0 0 1 642 212 L 642 221 A 0 0 0 0 1 642 221 L 608 221 A 0 0 0 0 1 608 221 L 608 212 A 0 0 0 0 1 608 212 Z" stroke="#ffffff" stroke-width="0" opacity="1" filter="none" class="highcharts-point"></path><path fill="rgb(125,100,75)" d="M 649 219 L 683 219 A 0 0 0 0 1 683 219 L 683 227 A 0 0 0 0 1 683 227 L 649 227 A 0 0 0 0 1 649 227 L 649 219 A 0 0 0 0 1 649 219 Z" stroke="#ffffff" stroke-width="0" opacity="1" filter="none" class="highcharts-point"></path><path fill="rgb(125,100,75)" d="M 689 225 L 723 225 A 0 0 0 0 1 723 225 L 723 232 A 0 0 0 0 1 723 232 L 689 232 A 0 0 0 0 1 689 232 L 689 225 A 0 0 0 0 1 689 225 Z" stroke="#ffffff" stroke-width="0" opacity="1" filter="none" class="highcharts-point"></path><path fill="rgb(125,100,75)" d="M 729 227 L 763 227 A 0 0 0 0 1 763 227 L 763 235 A 0 0 0 0 1 763 235 L 729 235 A 0 0 0 0 1 729 235 L 729 227 A 0 0 0 0 1 729 227 Z" stroke="#ffffff" stroke-width="0" opacity="1" filter="none" class="highcharts-point"></path><path fill="rgb(125,100,75)" d="M 770 238 L 804 238 A 0 0 0 0 1 804 238 L 804 247 A 0 0 0 0 1 804 247 L 770 247 A 0 0 0 0 1 770 247 L 770 238 A 0 0 0 0 1 770 238 Z" stroke="#ffffff" stroke-width="0" opacity="1" filter="none" class="highcharts-point"></path><path fill="rgb(125,100,75)" d="M 810 247 L 844 247 A 0 0 0 0 1 844 247 L 844 255 A 0 0 0 0 1 844 255 L 810 255 A 0 0 0 0 1 810 255 L 810 247 A 0 0 0 0 1 810 247 Z" stroke="#ffffff" stroke-width="0" opacity="1" filter="none" class="highcharts-point"></path><path fill="rgb(125,100,75)" d="M 850 261 L 884 261 A 0 0 0 0 1 884 261 L 884 268 A 0 0 0 0 1 884 268 L 850 268 A 0 0 0 0 1 850 268 L 850 261 A 0 0 0 0 1 850 261 Z" stroke="#ffffff" stroke-width="0" opacity="1" filter="none" class="highcharts-point"></path><path fill="rgb(125,100,75)" d="M 891 276 L 925 276 A 0 0 0 0 1 925 276 L 925 283 A 0 0 0 0 1 925 283 L 891 283 A 0 0 0 0 1 891 283 L 891 276 A 0 0 0 0 1 891 276 Z" stroke="#ffffff" stroke-width="0" opacity="1" filter="none" class="highcharts-point"></path><path fill="rgb(125,100,75)" d="M 931 277 L 965 277 A 0 0 0 0 1 965 277 L 965 284 A 0 0 0 0 1 965 284 L 931 284 A 0 0 0 0 1 931 284 L 931 277 A 0 0 0 0 1 931 277 Z" stroke="#ffffff" stroke-width="0" opacity="1" filter="none" class="highcharts-point"></path></g><g class="highcharts-markers highcharts-series-4 highcharts-column-series" data-z-index="0.1" opacity="1" transform="translate(46,50) scale(1 1)" clip-path="none"></g><g class="highcharts-series highcharts-series-5 highcharts-column-series" data-z-index="0.1" opacity="1" transform="translate(46,50) scale(1 1)" clip-path="url(#highcharts-9cd3oxt-1251-)"><path fill="rgb(150,125,175)" d="M 366 158 L 400 158 A 0 0 0 0 1 400 158 L 400 166 A 0 0 0 0 1 400 166 L 366 166 A 0 0 0 0 1 366 166 L 366 158 A 0 0 0 0 1 366 158 Z" stroke="#ffffff" stroke-width="0" opacity="1" filter="none" class="highcharts-point"></path><path fill="rgb(150,125,175)" d="M 407 171 L 441 171 A 0 0 0 0 1 441 171 L 441 178 A 0 0 0 0 1 441 178 L 407 178 A 0 0 0 0 1 407 178 L 407 171 A 0 0 0 0 1 407 171 Z" stroke="#ffffff" stroke-width="0" opacity="1" filter="none" class="highcharts-point"></path><path fill="rgb(150,125,175)" d="M 447 177 L 481 177 A 0 0 0 0 1 481 177 L 481 184 A 0 0 0 0 1 481 184 L 447 184 A 0 0 0 0 1 447 184 L 447 177 A 0 0 0 0 1 447 177 Z" stroke="#ffffff" stroke-width="0" opacity="1" filter="none" class="highcharts-point"></path><path fill="rgb(150,125,175)" d="M 487 184 L 521 184 A 0 0 0 0 1 521 184 L 521 190 A 0 0 0 0 1 521 190 L 487 190 A 0 0 0 0 1 487 190 L 487 184 A 0 0 0 0 1 487 184 Z" stroke="#ffffff" stroke-width="0" opacity="1" filter="none" class="highcharts-point"></path><path fill="rgb(150,125,175)" d="M 528 190 L 562 190 A 0 0 0 0 1 562 190 L 562 196 A 0 0 0 0 1 562 196 L 528 196 A 0 0 0 0 1 528 196 L 528 190 A 0 0 0 0 1 528 190 Z" stroke="#ffffff" stroke-width="0" opacity="1" filter="none" class="highcharts-point"></path><path fill="rgb(150,125,175)" d="M 568 196 L 602 196 A 0 0 0 0 1 602 196 L 602 202 A 0 0 0 0 1 602 202 L 568 202 A 0 0 0 0 1 568 202 L 568 196 A 0 0 0 0 1 568 196 Z" stroke="#ffffff" stroke-width="0" opacity="1" filter="none" class="highcharts-point"></path><path fill="rgb(150,125,175)" d="M 608 206 L 642 206 A 0 0 0 0 1 642 206 L 642 212 A 0 0 0 0 1 642 212 L 608 212 A 0 0 0 0 1 608 212 L 608 206 A 0 0 0 0 1 608 206 Z" stroke="#ffffff" stroke-width="0" opacity="1" filter="none" class="highcharts-point"></path><path fill="rgb(150,125,175)" d="M 649 213 L 683 213 A 0 0 0 0 1 683 213 L 683 219 A 0 0 0 0 1 683 219 L 649 219 A 0 0 0 0 1 649 219 L 649 213 A 0 0 0 0 1 649 213 Z" stroke="#ffffff" stroke-width="0" opacity="1" filter="none" class="highcharts-point"></path><path fill="rgb(150,125,175)" d="M 689 219 L 723 219 A 0 0 0 0 1 723 219 L 723 225 A 0 0 0 0 1 723 225 L 689 225 A 0 0 0 0 1 689 225 L 689 219 A 0 0 0 0 1 689 219 Z" stroke="#ffffff" stroke-width="0" opacity="1" filter="none" class="highcharts-point"></path><path fill="rgb(150,125,175)" d="M 729 222 L 763 222 A 0 0 0 0 1 763 222 L 763 227 A 0 0 0 0 1 763 227 L 729 227 A 0 0 0 0 1 729 227 L 729 222 A 0 0 0 0 1 729 222 Z" stroke="#ffffff" stroke-width="0" opacity="1" filter="none" class="highcharts-point"></path><path fill="rgb(150,125,175)" d="M 770 233 L 804 233 A 0 0 0 0 1 804 233 L 804 238 A 0 0 0 0 1 804 238 L 770 238 A 0 0 0 0 1 770 238 L 770 233 A 0 0 0 0 1 770 233 Z" stroke="#ffffff" stroke-width="0" opacity="1" filter="none" class="highcharts-point"></path><path fill="rgb(150,125,175)" d="M 810 242 L 844 242 A 0 0 0 0 1 844 242 L 844 247 A 0 0 0 0 1 844 247 L 810 247 A 0 0 0 0 1 810 247 L 810 242 A 0 0 0 0 1 810 242 Z" stroke="#ffffff" stroke-width="0" opacity="1" filter="none" class="highcharts-point"></path><path fill="rgb(150,125,175)" d="M 850 256 L 884 256 A 0 0 0 0 1 884 256 L 884 261 A 0 0 0 0 1 884 261 L 850 261 A 0 0 0 0 1 850 261 L 850 256 A 0 0 0 0 1 850 256 Z" stroke="#ffffff" stroke-width="0" opacity="1" filter="none" class="highcharts-point"></path><path fill="rgb(150,125,175)" d="M 891 272 L 925 272 A 0 0 0 0 1 925 272 L 925 276 A 0 0 0 0 1 925 276 L 891 276 A 0 0 0 0 1 891 276 L 891 272 A 0 0 0 0 1 891 272 Z" stroke="#ffffff" stroke-width="0" opacity="1" filter="none" class="highcharts-point"></path><path fill="rgb(150,125,175)" d="M 931 273 L 965 273 A 0 0 0 0 1 965 273 L 965 277 A 0 0 0 0 1 965 277 L 931 277 A 0 0 0 0 1 931 277 L 931 273 A 0 0 0 0 1 931 273 Z" stroke="#ffffff" stroke-width="0" opacity="1" filter="none" class="highcharts-point"></path></g><g class="highcharts-markers highcharts-series-5 highcharts-column-series" data-z-index="0.1" opacity="1" transform="translate(46,50) scale(1 1)" clip-path="none"></g><g class="highcharts-series highcharts-series-6 highcharts-column-series" data-z-index="0.1" opacity="1" transform="translate(46,50) scale(1 1)" clip-path="url(#highcharts-9cd3oxt-1251-)"><path fill="rgb(0,0,175)" d="M 3 44 L 37 44 A 0 0 0 0 1 37 44 L 37 61 A 0 0 0 0 1 37 61 L 3 61 A 0 0 0 0 1 3 61 L 3 44 A 0 0 0 0 1 3 44 Z" stroke="#ffffff" stroke-width="0" opacity="1" filter="none" class="highcharts-point"></path><path fill="rgb(0,0,175)" d="M 44 53 L 78 53 A 0 0 0 0 1 78 53 L 78 69 A 0 0 0 0 1 78 69 L 44 69 A 0 0 0 0 1 44 69 L 44 53 A 0 0 0 0 1 44 53 Z" stroke="#ffffff" stroke-width="0" opacity="1" filter="none" class="highcharts-point"></path><path fill="rgb(0,0,175)" d="M 84 60 L 118 60 A 0 0 0 0 1 118 60 L 118 76 A 0 0 0 0 1 118 76 L 84 76 A 0 0 0 0 1 84 76 L 84 60 A 0 0 0 0 1 84 60 Z" stroke="#ffffff" stroke-width="0" opacity="1" filter="none" class="highcharts-point"></path><path fill="rgb(0,0,175)" d="M 124 69 L 158 69 A 0 0 0 0 1 158 69 L 158 85 A 0 0 0 0 1 158 85 L 124 85 A 0 0 0 0 1 124 85 L 124 69 A 0 0 0 0 1 124 69 Z" stroke="#ffffff" stroke-width="0" opacity="1" filter="none" class="highcharts-point"></path><path fill="rgb(0,0,175)" d="M 165 78 L 199 78 A 0 0 0 0 1 199 78 L 199 93 A 0 0 0 0 1 199 93 L 165 93 A 0 0 0 0 1 165 93 L 165 78 A 0 0 0 0 1 165 78 Z" stroke="#ffffff" stroke-width="0" opacity="1" filter="none" class="highcharts-point"></path><path fill="rgb(0,0,175)" d="M 205 86 L 239 86 A 0 0 0 0 1 239 86 L 239 100 A 0 0 0 0 1 239 100 L 205 100 A 0 0 0 0 1 205 100 L 205 86 A 0 0 0 0 1 205 86 Z" stroke="#ffffff" stroke-width="0" opacity="1" filter="none" class="highcharts-point"></path><path fill="rgb(0,0,175)" d="M 245 92 L 279 92 A 0 0 0 0 1 279 92 L 279 106 A 0 0 0 0 1 279 106 L 245 106 A 0 0 0 0 1 245 106 L 245 92 A 0 0 0 0 1 245 92 Z" stroke="#ffffff" stroke-width="0" opacity="1" filter="none" class="highcharts-point"></path><path fill="rgb(0,0,175)" d="M 286 107 L 320 107 A 0 0 0 0 1 320 107 L 320 121 A 0 0 0 0 1 320 121 L 286 121 A 0 0 0 0 1 286 121 L 286 107 A 0 0 0 0 1 286 107 Z" stroke="#ffffff" stroke-width="0" opacity="1" filter="none" class="highcharts-point"></path><path fill="rgb(0,0,175)" d="M 326 121 L 360 121 A 0 0 0 0 1 360 121 L 360 134 A 0 0 0 0 1 360 134 L 326 134 A 0 0 0 0 1 326 134 L 326 121 A 0 0 0 0 1 326 121 Z" stroke="#ffffff" stroke-width="0" opacity="1" filter="none" class="highcharts-point"></path><path fill="rgb(0,0,175)" d="M 366 145 L 400 145 A 0 0 0 0 1 400 145 L 400 158 A 0 0 0 0 1 400 158 L 366 158 A 0 0 0 0 1 366 158 L 366 145 A 0 0 0 0 1 366 145 Z" stroke="#ffffff" stroke-width="0" opacity="1" filter="none" class="highcharts-point"></path><path fill="rgb(0,0,175)" d="M 407 159 L 441 159 A 0 0 0 0 1 441 159 L 441 171 A 0 0 0 0 1 441 171 L 407 171 A 0 0 0 0 1 407 171 L 407 159 A 0 0 0 0 1 407 159 Z" stroke="#ffffff" stroke-width="0" opacity="1" filter="none" class="highcharts-point"></path><path fill="rgb(0,0,175)" d="M 447 166 L 481 166 A 0 0 0 0 1 481 166 L 481 177 A 0 0 0 0 1 481 177 L 447 177 A 0 0 0 0 1 447 177 L 447 166 A 0 0 0 0 1 447 166 Z" stroke="#ffffff" stroke-width="0" opacity="1" filter="none" class="highcharts-point"></path><path fill="rgb(0,0,175)" d="M 487 172 L 521 172 A 0 0 0 0 1 521 172 L 521 184 A 0 0 0 0 1 521 184 L 487 184 A 0 0 0 0 1 487 184 L 487 172 A 0 0 0 0 1 487 172 Z" stroke="#ffffff" stroke-width="0" opacity="1" filter="none" class="highcharts-point"></path><path fill="rgb(0,0,175)" d="M 528 179 L 562 179 A 0 0 0 0 1 562 179 L 562 190 A 0 0 0 0 1 562 190 L 528 190 A 0 0 0 0 1 528 190 L 528 179 A 0 0 0 0 1 528 179 Z" stroke="#ffffff" stroke-width="0" opacity="1" filter="none" class="highcharts-point"></path><path fill="rgb(0,0,175)" d="M 568 186 L 602 186 A 0 0 0 0 1 602 186 L 602 196 A 0 0 0 0 1 602 196 L 568 196 A 0 0 0 0 1 568 196 L 568 186 A 0 0 0 0 1 568 186 Z" stroke="#ffffff" stroke-width="0" opacity="1" filter="none" class="highcharts-point"></path><path fill="rgb(0,0,175)" d="M 608 198 L 642 198 A 0 0 0 0 1 642 198 L 642 206 A 0 0 0 0 1 642 206 L 608 206 A 0 0 0 0 1 608 206 L 608 198 A 0 0 0 0 1 608 198 Z" stroke="#ffffff" stroke-width="0" opacity="1" filter="none" class="highcharts-point"></path><path fill="rgb(0,0,175)" d="M 649 204 L 683 204 A 0 0 0 0 1 683 204 L 683 213 A 0 0 0 0 1 683 213 L 649 213 A 0 0 0 0 1 649 213 L 649 204 A 0 0 0 0 1 649 204 Z" stroke="#ffffff" stroke-width="0" opacity="1" filter="none" class="highcharts-point"></path><path fill="rgb(0,0,175)" d="M 689 210 L 723 210 A 0 0 0 0 1 723 210 L 723 219 A 0 0 0 0 1 723 219 L 689 219 A 0 0 0 0 1 689 219 L 689 210 A 0 0 0 0 1 689 210 Z" stroke="#ffffff" stroke-width="0" opacity="1" filter="none" class="highcharts-point"></path><path fill="rgb(0,0,175)" d="M 729 214 L 763 214 A 0 0 0 0 1 763 214 L 763 222 A 0 0 0 0 1 763 222 L 729 222 A 0 0 0 0 1 729 222 L 729 214 A 0 0 0 0 1 729 214 Z" stroke="#ffffff" stroke-width="0" opacity="1" filter="none" class="highcharts-point"></path><path fill="rgb(0,0,175)" d="M 770 225 L 804 225 A 0 0 0 0 1 804 225 L 804 233 A 0 0 0 0 1 804 233 L 770 233 A 0 0 0 0 1 770 233 L 770 225 A 0 0 0 0 1 770 225 Z" stroke="#ffffff" stroke-width="0" opacity="1" filter="none" class="highcharts-point"></path><path fill="rgb(0,0,175)" d="M 810 234 L 844 234 A 0 0 0 0 1 844 234 L 844 242 A 0 0 0 0 1 844 242 L 810 242 A 0 0 0 0 1 810 242 L 810 234 A 0 0 0 0 1 810 234 Z" stroke="#ffffff" stroke-width="0" opacity="1" filter="none" class="highcharts-point"></path><path fill="rgb(0,0,175)" d="M 850 246 L 884 246 A 0 0 0 0 1 884 246 L 884 256 A 0 0 0 0 1 884 256 L 850 256 A 0 0 0 0 1 850 256 L 850 246 A 0 0 0 0 1 850 246 Z" stroke="#ffffff" stroke-width="0" opacity="1" filter="none" class="highcharts-point"></path><path fill="rgb(0,0,175)" d="M 891 262 L 925 262 A 0 0 0 0 1 925 262 L 925 272 A 0 0 0 0 1 925 272 L 891 272 A 0 0 0 0 1 891 272 L 891 262 A 0 0 0 0 1 891 262 Z" stroke="#ffffff" stroke-width="0" opacity="1" filter="none" class="highcharts-point"></path><path fill="rgb(0,0,175)" d="M 931 264 L 965 264 A 0 0 0 0 1 965 264 L 965 273 A 0 0 0 0 1 965 273 L 931 273 A 0 0 0 0 1 931 273 L 931 264 A 0 0 0 0 1 931 264 Z" stroke="#ffffff" stroke-width="0" opacity="1" filter="none" class="highcharts-point"></path></g><g class="highcharts-markers highcharts-series-6 highcharts-column-series" data-z-index="0.1" opacity="1" transform="translate(46,50) scale(1 1)" clip-path="none"></g><g class="highcharts-series highcharts-series-7 highcharts-column-series" visibility="hidden" data-z-index="0.1" opacity="1" transform="translate(46,50) scale(1 1)" clip-path="url(#highcharts-9cd3oxt-1251-)"></g><g class="highcharts-markers highcharts-series-7 highcharts-column-series" visibility="hidden" data-z-index="0.1" opacity="1" transform="translate(46,50) scale(1 1)" clip-path="none"></g><g class="highcharts-series highcharts-series-8 highcharts-column-series" visibility="hidden" data-z-index="0.1" opacity="1" transform="translate(46,50) scale(1 1)" clip-path="url(#highcharts-9cd3oxt-1251-)"></g><g class="highcharts-markers highcharts-series-8 highcharts-column-series" visibility="hidden" data-z-index="0.1" opacity="1" transform="translate(46,50) scale(1 1)" clip-path="none"></g><g class="highcharts-series highcharts-series-9 highcharts-column-series" visibility="hidden" data-z-index="0.1" opacity="1" transform="translate(46,50) scale(1 1)" clip-path="url(#highcharts-9cd3oxt-1468-)"></g><g class="highcharts-markers highcharts-series-9 highcharts-column-series" visibility="hidden" data-z-index="0.1" opacity="1" transform="translate(46,50) scale(1 1)" clip-path="none"></g><g class="highcharts-series highcharts-series-10 highcharts-column-series" data-z-index="0.1" opacity="1" transform="translate(46,50) scale(1 1)" clip-path="url(#highcharts-9cd3oxt-1251-)"><path fill="rgb(0, 150, 50)" d="M 3 41 L 37 41 A 0 0 0 0 1 37 41 L 37 44 A 0 0 0 0 1 37 44 L 3 44 A 0 0 0 0 1 3 44 L 3 41 A 0 0 0 0 1 3 41 Z" stroke="#ffffff" stroke-width="0" opacity="1" filter="none" class="highcharts-point"></path><path fill="rgb(0, 150, 50)" d="M 44 49 L 78 49 A 0 0 0 0 1 78 49 L 78 53 A 0 0 0 0 1 78 53 L 44 53 A 0 0 0 0 1 44 53 L 44 49 A 0 0 0 0 1 44 49 Z" stroke="#ffffff" stroke-width="0" opacity="1" filter="none" class="highcharts-point"></path><path fill="rgb(0, 150, 50)" d="M 84 56 L 118 56 A 0 0 0 0 1 118 56 L 118 60 A 0 0 0 0 1 118 60 L 84 60 A 0 0 0 0 1 84 60 L 84 56 A 0 0 0 0 1 84 56 Z" stroke="#ffffff" stroke-width="0" opacity="1" filter="none" class="highcharts-point"></path><path fill="rgb(0, 150, 50)" d="M 124 63 L 158 63 A 0 0 0 0 1 158 63 L 158 69 A 0 0 0 0 1 158 69 L 124 69 A 0 0 0 0 1 124 69 L 124 63 A 0 0 0 0 1 124 63 Z" stroke="#ffffff" stroke-width="0" opacity="1" filter="none" class="highcharts-point"></path><path fill="rgb(0, 150, 50)" d="M 165 71 L 199 71 A 0 0 0 0 1 199 71 L 199 78 A 0 0 0 0 1 199 78 L 165 78 A 0 0 0 0 1 165 78 L 165 71 A 0 0 0 0 1 165 71 Z" stroke="#ffffff" stroke-width="0" opacity="1" filter="none" class="highcharts-point"></path><path fill="rgb(0, 150, 50)" d="M 205 77 L 239 77 A 0 0 0 0 1 239 77 L 239 86 A 0 0 0 0 1 239 86 L 205 86 A 0 0 0 0 1 205 86 L 205 77 A 0 0 0 0 1 205 77 Z" stroke="#ffffff" stroke-width="0" opacity="1" filter="none" class="highcharts-point"></path><path fill="rgb(0, 150, 50)" d="M 245 81 L 279 81 A 0 0 0 0 1 279 81 L 279 92 A 0 0 0 0 1 279 92 L 245 92 A 0 0 0 0 1 245 92 L 245 81 A 0 0 0 0 1 245 81 Z" stroke="#ffffff" stroke-width="0" opacity="1" filter="none" class="highcharts-point"></path><path fill="rgb(0, 150, 50)" d="M 286 97 L 320 97 A 0 0 0 0 1 320 97 L 320 107 A 0 0 0 0 1 320 107 L 286 107 A 0 0 0 0 1 286 107 L 286 97 A 0 0 0 0 1 286 97 Z" stroke="#ffffff" stroke-width="0" opacity="1" filter="none" class="highcharts-point"></path><path fill="rgb(0, 150, 50)" d="M 326 110 L 360 110 A 0 0 0 0 1 360 110 L 360 121 A 0 0 0 0 1 360 121 L 326 121 A 0 0 0 0 1 326 121 L 326 110 A 0 0 0 0 1 326 110 Z" stroke="#ffffff" stroke-width="0" opacity="1" filter="none" class="highcharts-point"></path><path fill="rgb(0, 150, 50)" d="M 366 132 L 400 132 A 0 0 0 0 1 400 132 L 400 145 A 0 0 0 0 1 400 145 L 366 145 A 0 0 0 0 1 366 145 L 366 132 A 0 0 0 0 1 366 132 Z" stroke="#ffffff" stroke-width="0" opacity="1" filter="none" class="highcharts-point"></path><path fill="rgb(0, 150, 50)" d="M 407 145 L 441 145 A 0 0 0 0 1 441 145 L 441 159 A 0 0 0 0 1 441 159 L 407 159 A 0 0 0 0 1 407 159 L 407 145 A 0 0 0 0 1 407 145 Z" stroke="#ffffff" stroke-width="0" opacity="1" filter="none" class="highcharts-point"></path><path fill="rgb(0, 150, 50)" d="M 447 151 L 481 151 A 0 0 0 0 1 481 151 L 481 166 A 0 0 0 0 1 481 166 L 447 166 A 0 0 0 0 1 447 166 L 447 151 A 0 0 0 0 1 447 151 Z" stroke="#ffffff" stroke-width="0" opacity="1" filter="none" class="highcharts-point"></path><path fill="rgb(0, 150, 50)" d="M 487 158 L 521 158 A 0 0 0 0 1 521 158 L 521 172 A 0 0 0 0 1 521 172 L 487 172 A 0 0 0 0 1 487 172 L 487 158 A 0 0 0 0 1 487 158 Z" stroke="#ffffff" stroke-width="0" opacity="1" filter="none" class="highcharts-point"></path><path fill="rgb(0, 150, 50)" d="M 528 166 L 562 166 A 0 0 0 0 1 562 166 L 562 179 A 0 0 0 0 1 562 179 L 528 179 A 0 0 0 0 1 528 179 L 528 166 A 0 0 0 0 1 528 166 Z" stroke="#ffffff" stroke-width="0" opacity="1" filter="none" class="highcharts-point"></path><path fill="rgb(0, 150, 50)" d="M 568 172 L 602 172 A 0 0 0 0 1 602 172 L 602 186 A 0 0 0 0 1 602 186 L 568 186 A 0 0 0 0 1 568 186 L 568 172 A 0 0 0 0 1 568 172 Z" stroke="#ffffff" stroke-width="0" opacity="1" filter="none" class="highcharts-point"></path><path fill="rgb(0, 150, 50)" d="M 608 183 L 642 183 A 0 0 0 0 1 642 183 L 642 198 A 0 0 0 0 1 642 198 L 608 198 A 0 0 0 0 1 608 198 L 608 183 A 0 0 0 0 1 608 183 Z" stroke="#ffffff" stroke-width="0" opacity="1" filter="none" class="highcharts-point"></path><path fill="rgb(0, 150, 50)" d="M 649 190 L 683 190 A 0 0 0 0 1 683 190 L 683 204 A 0 0 0 0 1 683 204 L 649 204 A 0 0 0 0 1 649 204 L 649 190 A 0 0 0 0 1 649 190 Z" stroke="#ffffff" stroke-width="0" opacity="1" filter="none" class="highcharts-point"></path><path fill="rgb(0, 150, 50)" d="M 689 195 L 723 195 A 0 0 0 0 1 723 195 L 723 210 A 0 0 0 0 1 723 210 L 689 210 A 0 0 0 0 1 689 210 L 689 195 A 0 0 0 0 1 689 195 Z" stroke="#ffffff" stroke-width="0" opacity="1" filter="none" class="highcharts-point"></path><path fill="rgb(0, 150, 50)" d="M 729 199 L 763 199 A 0 0 0 0 1 763 199 L 763 214 A 0 0 0 0 1 763 214 L 729 214 A 0 0 0 0 1 729 214 L 729 199 A 0 0 0 0 1 729 199 Z" stroke="#ffffff" stroke-width="0" opacity="1" filter="none" class="highcharts-point"></path><path fill="rgb(0, 150, 50)" d="M 770 210 L 804 210 A 0 0 0 0 1 804 210 L 804 225 A 0 0 0 0 1 804 225 L 770 225 A 0 0 0 0 1 770 225 L 770 210 A 0 0 0 0 1 770 210 Z" stroke="#ffffff" stroke-width="0" opacity="1" filter="none" class="highcharts-point"></path><path fill="rgb(0, 150, 50)" d="M 810 219 L 844 219 A 0 0 0 0 1 844 219 L 844 234 A 0 0 0 0 1 844 234 L 810 234 A 0 0 0 0 1 810 234 L 810 219 A 0 0 0 0 1 810 219 Z" stroke="#ffffff" stroke-width="0" opacity="1" filter="none" class="highcharts-point"></path><path fill="rgb(0, 150, 50)" d="M 850 232 L 884 232 A 0 0 0 0 1 884 232 L 884 246 A 0 0 0 0 1 884 246 L 850 246 A 0 0 0 0 1 850 246 L 850 232 A 0 0 0 0 1 850 232 Z" stroke="#ffffff" stroke-width="0" opacity="1" filter="none" class="highcharts-point"></path><path fill="rgb(0, 150, 50)" d="M 891 249 L 925 249 A 0 0 0 0 1 925 249 L 925 262 A 0 0 0 0 1 925 262 L 891 262 A 0 0 0 0 1 891 262 L 891 249 A 0 0 0 0 1 891 249 Z" stroke="#ffffff" stroke-width="0" opacity="1" filter="none" class="highcharts-point"></path><path fill="rgb(0, 150, 50)" d="M 931 251 L 965 251 A 0 0 0 0 1 965 251 L 965 264 A 0 0 0 0 1 965 264 L 931 264 A 0 0 0 0 1 931 264 L 931 251 A 0 0 0 0 1 931 251 Z" stroke="#ffffff" stroke-width="0" opacity="1" filter="none" class="highcharts-point"></path></g><g class="highcharts-markers highcharts-series-10 highcharts-column-series" data-z-index="0.1" opacity="1" transform="translate(46,50) scale(1 1)" clip-path="none"></g><g class="highcharts-series highcharts-series-11 highcharts-column-series" data-z-index="0.1" opacity="1" transform="translate(46,50) scale(1 1)" clip-path="url(#highcharts-9cd3oxt-1251-)"><path fill="rgb(155,175,145)" d="M 3 41 L 37 41 A 0 0 0 0 1 37 41 L 37 41 A 0 0 0 0 1 37 41 L 3 41 A 0 0 0 0 1 3 41 L 3 41 A 0 0 0 0 1 3 41 Z" stroke="#ffffff" stroke-width="0" opacity="1" filter="none" class="highcharts-point"></path><path fill="rgb(155,175,145)" d="M 44 49 L 78 49 A 0 0 0 0 1 78 49 L 78 49 A 0 0 0 0 1 78 49 L 44 49 A 0 0 0 0 1 44 49 L 44 49 A 0 0 0 0 1 44 49 Z" stroke="#ffffff" stroke-width="0" opacity="1" filter="none" class="highcharts-point"></path><path fill="rgb(155,175,145)" d="M 84 56 L 118 56 A 0 0 0 0 1 118 56 L 118 56 A 0 0 0 0 1 118 56 L 84 56 A 0 0 0 0 1 84 56 L 84 56 A 0 0 0 0 1 84 56 Z" stroke="#ffffff" stroke-width="0" opacity="1" filter="none" class="highcharts-point"></path><path fill="rgb(155,175,145)" d="M 124 63 L 158 63 A 0 0 0 0 1 158 63 L 158 63 A 0 0 0 0 1 158 63 L 124 63 A 0 0 0 0 1 124 63 L 124 63 A 0 0 0 0 1 124 63 Z" stroke="#ffffff" stroke-width="0" opacity="1" filter="none" class="highcharts-point"></path><path fill="rgb(155,175,145)" d="M 165 71 L 199 71 A 0 0 0 0 1 199 71 L 199 71 A 0 0 0 0 1 199 71 L 165 71 A 0 0 0 0 1 165 71 L 165 71 A 0 0 0 0 1 165 71 Z" stroke="#ffffff" stroke-width="0" opacity="1" filter="none" class="highcharts-point"></path><path fill="rgb(155,175,145)" d="M 205 77 L 239 77 A 0 0 0 0 1 239 77 L 239 77 A 0 0 0 0 1 239 77 L 205 77 A 0 0 0 0 1 205 77 L 205 77 A 0 0 0 0 1 205 77 Z" stroke="#ffffff" stroke-width="0" opacity="1" filter="none" class="highcharts-point"></path><path fill="rgb(155,175,145)" d="M 245 81 L 279 81 A 0 0 0 0 1 279 81 L 279 81 A 0 0 0 0 1 279 81 L 245 81 A 0 0 0 0 1 245 81 L 245 81 A 0 0 0 0 1 245 81 Z" stroke="#ffffff" stroke-width="0" opacity="1" filter="none" class="highcharts-point"></path><path fill="rgb(155,175,145)" d="M 286 97 L 320 97 A 0 0 0 0 1 320 97 L 320 97 A 0 0 0 0 1 320 97 L 286 97 A 0 0 0 0 1 286 97 L 286 97 A 0 0 0 0 1 286 97 Z" stroke="#ffffff" stroke-width="0" opacity="1" filter="none" class="highcharts-point"></path><path fill="rgb(155,175,145)" d="M 326 110 L 360 110 A 0 0 0 0 1 360 110 L 360 110 A 0 0 0 0 1 360 110 L 326 110 A 0 0 0 0 1 326 110 L 326 110 A 0 0 0 0 1 326 110 Z" stroke="#ffffff" stroke-width="0" opacity="1" filter="none" class="highcharts-point"></path><path fill="rgb(155,175,145)" d="M 366 131 L 400 131 A 0 0 0 0 1 400 131 L 400 132 A 0 0 0 0 1 400 132 L 366 132 A 0 0 0 0 1 366 132 L 366 131 A 0 0 0 0 1 366 131 Z" stroke="#ffffff" stroke-width="0" opacity="1" filter="none" class="highcharts-point"></path><path fill="rgb(155,175,145)" d="M 407 144 L 441 144 A 0 0 0 0 1 441 144 L 441 145 A 0 0 0 0 1 441 145 L 407 145 A 0 0 0 0 1 407 145 L 407 144 A 0 0 0 0 1 407 144 Z" stroke="#ffffff" stroke-width="0" opacity="1" filter="none" class="highcharts-point"></path><path fill="rgb(155,175,145)" d="M 447 150 L 481 150 A 0 0 0 0 1 481 150 L 481 151 A 0 0 0 0 1 481 151 L 447 151 A 0 0 0 0 1 447 151 L 447 150 A 0 0 0 0 1 447 150 Z" stroke="#ffffff" stroke-width="0" opacity="1" filter="none" class="highcharts-point"></path><path fill="rgb(155,175,145)" d="M 487 156 L 521 156 A 0 0 0 0 1 521 156 L 521 158 A 0 0 0 0 1 521 158 L 487 158 A 0 0 0 0 1 487 158 L 487 156 A 0 0 0 0 1 487 156 Z" stroke="#ffffff" stroke-width="0" opacity="1" filter="none" class="highcharts-point"></path><path fill="rgb(155,175,145)" d="M 528 159 L 562 159 A 0 0 0 0 1 562 159 L 562 166 A 0 0 0 0 1 562 166 L 528 166 A 0 0 0 0 1 528 166 L 528 159 A 0 0 0 0 1 528 159 Z" stroke="#ffffff" stroke-width="0" opacity="1" filter="none" class="highcharts-point"></path><path fill="rgb(155,175,145)" d="M 568 164 L 602 164 A 0 0 0 0 1 602 164 L 602 172 A 0 0 0 0 1 602 172 L 568 172 A 0 0 0 0 1 568 172 L 568 164 A 0 0 0 0 1 568 164 Z" stroke="#ffffff" stroke-width="0" opacity="1" filter="none" class="highcharts-point"></path><path fill="rgb(155,175,145)" d="M 608 173 L 642 173 A 0 0 0 0 1 642 173 L 642 183 A 0 0 0 0 1 642 183 L 608 183 A 0 0 0 0 1 608 183 L 608 173 A 0 0 0 0 1 608 173 Z" stroke="#ffffff" stroke-width="0" opacity="1" filter="none" class="highcharts-point"></path><path fill="rgb(155,175,145)" d="M 649 178 L 683 178 A 0 0 0 0 1 683 178 L 683 190 A 0 0 0 0 1 683 190 L 649 190 A 0 0 0 0 1 649 190 L 649 178 A 0 0 0 0 1 649 178 Z" stroke="#ffffff" stroke-width="0" opacity="1" filter="none" class="highcharts-point"></path><path fill="rgb(155,175,145)" d="M 689 182 L 723 182 A 0 0 0 0 1 723 182 L 723 195 A 0 0 0 0 1 723 195 L 689 195 A 0 0 0 0 1 689 195 L 689 182 A 0 0 0 0 1 689 182 Z" stroke="#ffffff" stroke-width="0" opacity="1" filter="none" class="highcharts-point"></path><path fill="rgb(155,175,145)" d="M 729 185 L 763 185 A 0 0 0 0 1 763 185 L 763 199 A 0 0 0 0 1 763 199 L 729 199 A 0 0 0 0 1 729 199 L 729 185 A 0 0 0 0 1 729 185 Z" stroke="#ffffff" stroke-width="0" opacity="1" filter="none" class="highcharts-point"></path><path fill="rgb(155,175,145)" d="M 770 196 L 804 196 A 0 0 0 0 1 804 196 L 804 210 A 0 0 0 0 1 804 210 L 770 210 A 0 0 0 0 1 770 210 L 770 196 A 0 0 0 0 1 770 196 Z" stroke="#ffffff" stroke-width="0" opacity="1" filter="none" class="highcharts-point"></path><path fill="rgb(155,175,145)" d="M 810 206 L 844 206 A 0 0 0 0 1 844 206 L 844 219 A 0 0 0 0 1 844 219 L 810 219 A 0 0 0 0 1 810 219 L 810 206 A 0 0 0 0 1 810 206 Z" stroke="#ffffff" stroke-width="0" opacity="1" filter="none" class="highcharts-point"></path><path fill="rgb(155,175,145)" d="M 850 219 L 884 219 A 0 0 0 0 1 884 219 L 884 232 A 0 0 0 0 1 884 232 L 850 232 A 0 0 0 0 1 850 232 L 850 219 A 0 0 0 0 1 850 219 Z" stroke="#ffffff" stroke-width="0" opacity="1" filter="none" class="highcharts-point"></path><path fill="rgb(155,175,145)" d="M 891 236 L 925 236 A 0 0 0 0 1 925 236 L 925 249 A 0 0 0 0 1 925 249 L 891 249 A 0 0 0 0 1 891 249 L 891 236 A 0 0 0 0 1 891 236 Z" stroke="#ffffff" stroke-width="0" opacity="1" filter="none" class="highcharts-point"></path><path fill="rgb(155,175,145)" d="M 931 238 L 965 238 A 0 0 0 0 1 965 238 L 965 251 A 0 0 0 0 1 965 251 L 931 251 A 0 0 0 0 1 931 251 L 931 238 A 0 0 0 0 1 931 238 Z" stroke="#ffffff" stroke-width="0" opacity="1" filter="none" class="highcharts-point"></path></g><g class="highcharts-markers highcharts-series-11 highcharts-column-series" data-z-index="0.1" opacity="1" transform="translate(46,50) scale(1 1)" clip-path="none"></g><g class="highcharts-series highcharts-series-12 highcharts-column-series" data-z-index="0.1" opacity="1" transform="translate(46,50) scale(1 1)" clip-path="url(#highcharts-9cd3oxt-1251-)"><path fill="rgb(195,215,185)" d="M 3.1715728752538097 2 L 36.82842712474619 2 A 3 3 0 0 1 37 3 L 37 41 A 0 0 0 0 1 37 41 L 3 41 A 0 0 0 0 1 3 41 L 3 3 A 3 3 0 0 1 3.1715728752538097 2 Z" stroke="#ffffff" stroke-width="0" opacity="1" filter="none" class="highcharts-point"></path><path fill="rgb(195,215,185)" d="M 44.17157287525381 2 L 77.82842712474618 2 A 3 3 0 0 1 78 3 L 78 49 A 0 0 0 0 1 78 49 L 44 49 A 0 0 0 0 1 44 49 L 44 3 A 3 3 0 0 1 44.17157287525381 2 Z" stroke="#ffffff" stroke-width="0" opacity="1" filter="none" class="highcharts-point"></path><path fill="rgb(195,215,185)" d="M 84 4 L 118 4 A 0 0 0 0 1 118 4 L 118 56 A 0 0 0 0 1 118 56 L 84 56 A 0 0 0 0 1 84 56 L 84 4 A 0 0 0 0 1 84 4 Z" stroke="#ffffff" stroke-width="0" opacity="1" filter="none" class="highcharts-point"></path><path fill="rgb(195,215,185)" d="M 124 7 L 158 7 A 0 0 0 0 1 158 7 L 158 63 A 0 0 0 0 1 158 63 L 124 63 A 0 0 0 0 1 124 63 L 124 7 A 0 0 0 0 1 124 7 Z" stroke="#ffffff" stroke-width="0" opacity="1" filter="none" class="highcharts-point"></path><path fill="rgb(195,215,185)" d="M 165 10 L 199 10 A 0 0 0 0 1 199 10 L 199 71 A 0 0 0 0 1 199 71 L 165 71 A 0 0 0 0 1 165 71 L 165 10 A 0 0 0 0 1 165 10 Z" stroke="#ffffff" stroke-width="0" opacity="1" filter="none" class="highcharts-point"></path><path fill="rgb(195,215,185)" d="M 205 13 L 239 13 A 0 0 0 0 1 239 13 L 239 77 A 0 0 0 0 1 239 77 L 205 77 A 0 0 0 0 1 205 77 L 205 13 A 0 0 0 0 1 205 13 Z" stroke="#ffffff" stroke-width="0" opacity="1" filter="none" class="highcharts-point"></path><path fill="rgb(195,215,185)" d="M 245 18 L 279 18 A 0 0 0 0 1 279 18 L 279 81 A 0 0 0 0 1 279 81 L 245 81 A 0 0 0 0 1 245 81 L 245 18 A 0 0 0 0 1 245 18 Z" stroke="#ffffff" stroke-width="0" opacity="1" filter="none" class="highcharts-point"></path><path fill="rgb(195,215,185)" d="M 286 29 L 320 29 A 0 0 0 0 1 320 29 L 320 97 A 0 0 0 0 1 320 97 L 286 97 A 0 0 0 0 1 286 97 L 286 29 A 0 0 0 0 1 286 29 Z" stroke="#ffffff" stroke-width="0" opacity="1" filter="none" class="highcharts-point"></path><path fill="rgb(195,215,185)" d="M 326 45 L 360 45 A 0 0 0 0 1 360 45 L 360 110 A 0 0 0 0 1 360 110 L 326 110 A 0 0 0 0 1 326 110 L 326 45 A 0 0 0 0 1 326 45 Z" stroke="#ffffff" stroke-width="0" opacity="1" filter="none" class="highcharts-point"></path><path fill="rgb(195,215,185)" d="M 366 62 L 400 62 A 0 0 0 0 1 400 62 L 400 131 A 0 0 0 0 1 400 131 L 366 131 A 0 0 0 0 1 366 131 L 366 62 A 0 0 0 0 1 366 62 Z" stroke="#ffffff" stroke-width="0" opacity="1" filter="none" class="highcharts-point"></path><path fill="rgb(195,215,185)" d="M 407 75 L 441 75 A 0 0 0 0 1 441 75 L 441 144 A 0 0 0 0 1 441 144 L 407 144 A 0 0 0 0 1 407 144 L 407 75 A 0 0 0 0 1 407 75 Z" stroke="#ffffff" stroke-width="0" opacity="1" filter="none" class="highcharts-point"></path><path fill="rgb(195,215,185)" d="M 447 80 L 481 80 A 0 0 0 0 1 481 80 L 481 150 A 0 0 0 0 1 481 150 L 447 150 A 0 0 0 0 1 447 150 L 447 80 A 0 0 0 0 1 447 80 Z" stroke="#ffffff" stroke-width="0" opacity="1" filter="none" class="highcharts-point"></path><path fill="rgb(195,215,185)" d="M 487 79 L 521 79 A 0 0 0 0 1 521 79 L 521 156 A 0 0 0 0 1 521 156 L 487 156 A 0 0 0 0 1 487 156 L 487 79 A 0 0 0 0 1 487 79 Z" stroke="#ffffff" stroke-width="0" opacity="1" filter="none" class="highcharts-point"></path><path fill="rgb(195,215,185)" d="M 528 78 L 562 78 A 0 0 0 0 1 562 78 L 562 159 A 0 0 0 0 1 562 159 L 528 159 A 0 0 0 0 1 528 159 L 528 78 A 0 0 0 0 1 528 78 Z" stroke="#ffffff" stroke-width="0" opacity="1" filter="none" class="highcharts-point"></path><path fill="rgb(195,215,185)" d="M 568 78 L 602 78 A 0 0 0 0 1 602 78 L 602 164 A 0 0 0 0 1 602 164 L 568 164 A 0 0 0 0 1 568 164 L 568 78 A 0 0 0 0 1 568 78 Z" stroke="#ffffff" stroke-width="0" opacity="1" filter="none" class="highcharts-point"></path><path fill="rgb(195,215,185)" d="M 608 80 L 642 80 A 0 0 0 0 1 642 80 L 642 173 A 0 0 0 0 1 642 173 L 608 173 A 0 0 0 0 1 608 173 L 608 80 A 0 0 0 0 1 608 80 Z" stroke="#ffffff" stroke-width="0" opacity="1" filter="none" class="highcharts-point"></path><path fill="rgb(195,215,185)" d="M 649 83 L 683 83 A 0 0 0 0 1 683 83 L 683 178 A 0 0 0 0 1 683 178 L 649 178 A 0 0 0 0 1 649 178 L 649 83 A 0 0 0 0 1 649 83 Z" stroke="#ffffff" stroke-width="0" opacity="1" filter="none" class="highcharts-point"></path><path fill="rgb(195,215,185)" d="M 689 88 L 723 88 A 0 0 0 0 1 723 88 L 723 182 A 0 0 0 0 1 723 182 L 689 182 A 0 0 0 0 1 689 182 L 689 88 A 0 0 0 0 1 689 88 Z" stroke="#ffffff" stroke-width="0" opacity="1" filter="none" class="highcharts-point"></path><path fill="rgb(195,215,185)" d="M 729 93 L 763 93 A 0 0 0 0 1 763 93 L 763 185 A 0 0 0 0 1 763 185 L 729 185 A 0 0 0 0 1 729 185 L 729 93 A 0 0 0 0 1 729 93 Z" stroke="#ffffff" stroke-width="0" opacity="1" filter="none" class="highcharts-point"></path><path fill="rgb(195,215,185)" d="M 770 102 L 804 102 A 0 0 0 0 1 804 102 L 804 196 A 0 0 0 0 1 804 196 L 770 196 A 0 0 0 0 1 770 196 L 770 102 A 0 0 0 0 1 770 102 Z" stroke="#ffffff" stroke-width="0" opacity="1" filter="none" class="highcharts-point"></path><path fill="rgb(195,215,185)" d="M 810 111 L 844 111 A 0 0 0 0 1 844 111 L 844 206 A 0 0 0 0 1 844 206 L 810 206 A 0 0 0 0 1 810 206 L 810 111 A 0 0 0 0 1 810 111 Z" stroke="#ffffff" stroke-width="0" opacity="1" filter="none" class="highcharts-point"></path><path fill="rgb(195,215,185)" d="M 850 127 L 884 127 A 0 0 0 0 1 884 127 L 884 219 A 0 0 0 0 1 884 219 L 850 219 A 0 0 0 0 1 850 219 L 850 127 A 0 0 0 0 1 850 127 Z" stroke="#ffffff" stroke-width="0" opacity="1" filter="none" class="highcharts-point"></path><path fill="rgb(195,215,185)" d="M 891 145 L 925 145 A 0 0 0 0 1 925 145 L 925 236 A 0 0 0 0 1 925 236 L 891 236 A 0 0 0 0 1 891 236 L 891 145 A 0 0 0 0 1 891 145 Z" stroke="#ffffff" stroke-width="0" opacity="1" filter="none" class="highcharts-point"></path><path fill="rgb(195,215,185)" d="M 931 147 L 965 147 A 0 0 0 0 1 965 147 L 965 238 A 0 0 0 0 1 965 238 L 931 238 A 0 0 0 0 1 931 238 L 931 147 A 0 0 0 0 1 931 147 Z" stroke="#ffffff" stroke-width="0" opacity="1" filter="none" class="highcharts-point"></path></g><g class="highcharts-markers highcharts-series-12 highcharts-column-series" data-z-index="0.1" opacity="1" transform="translate(46,50) scale(1 1)" clip-path="none"></g><g class="highcharts-series highcharts-series-13 highcharts-column-series" visibility="hidden" data-z-index="0.1" opacity="1" transform="translate(46,50) scale(1 1)" clip-path="url(#highcharts-9cd3oxt-1251-)"></g><g class="highcharts-markers highcharts-series-13 highcharts-column-series" visibility="hidden" data-z-index="0.1" opacity="1" transform="translate(46,50) scale(1 1)" clip-path="none"></g><g class="highcharts-series highcharts-series-14 highcharts-column-series" data-z-index="0.1" opacity="1" transform="translate(46,50) scale(1 1)" clip-path="url(#highcharts-9cd3oxt-1251-)"><path fill="rgb(255,205,100)" d="M 6 0 L 34 0 A 3 3 0 0 1 36.82842712474619 2 L 36.82842712474619 2 A 0 0 0 0 1 36.82842712474619 2 L 36.82842712474619 2 A 0 0 0 0 1 3.1715728752538097 2 L 3.1715728752538097 2 A 3 3 0 0 1 6 0 Z" stroke="#ffffff" stroke-width="0" opacity="1" filter="none" class="highcharts-point"></path><path fill="rgb(255,205,100)" d="M 47 0 L 75 0 A 3 3 0 0 1 77.82842712474618 2 L 77.82842712474618 2 A 0 0 0 0 1 77.82842712474618 2 L 77.82842712474618 2 A 0 0 0 0 1 44.17157287525381 2 L 44.17157287525381 2 A 3 3 0 0 1 47 0 Z" stroke="#ffffff" stroke-width="0" opacity="1" filter="none" class="highcharts-point"></path><path fill="rgb(255,205,100)" d="M 87 0 L 115 0 A 3 3 0 0 1 118 3 L 118 4 A 0 0 0 0 1 118 4 L 84 4 A 0 0 0 0 1 84 4 L 84 3 A 3 3 0 0 1 87 0 Z" stroke="#ffffff" stroke-width="0" opacity="1" filter="none" class="highcharts-point"></path><path fill="rgb(255,205,100)" d="M 127 0 L 155 0 A 3 3 0 0 1 158 3 L 158 7 A 0 0 0 0 1 158 7 L 124 7 A 0 0 0 0 1 124 7 L 124 3 A 3 3 0 0 1 127 0 Z" stroke="#ffffff" stroke-width="0" opacity="1" filter="none" class="highcharts-point"></path><path fill="rgb(255,205,100)" d="M 168 0 L 196 0 A 3 3 0 0 1 199 3 L 199 10 A 0 0 0 0 1 199 10 L 165 10 A 0 0 0 0 1 165 10 L 165 3 A 3 3 0 0 1 168 0 Z" stroke="#ffffff" stroke-width="0" opacity="1" filter="none" class="highcharts-point"></path><path fill="rgb(255,205,100)" d="M 208 0 L 236 0 A 3 3 0 0 1 239 3 L 239 13 A 0 0 0 0 1 239 13 L 205 13 A 0 0 0 0 1 205 13 L 205 3 A 3 3 0 0 1 208 0 Z" stroke="#ffffff" stroke-width="0" opacity="1" filter="none" class="highcharts-point"></path><path fill="rgb(255,205,100)" d="M 248 0 L 276 0 A 3 3 0 0 1 279 3 L 279 18 A 0 0 0 0 1 279 18 L 245 18 A 0 0 0 0 1 245 18 L 245 3 A 3 3 0 0 1 248 0 Z" stroke="#ffffff" stroke-width="0" opacity="1" filter="none" class="highcharts-point"></path><path fill="rgb(255,205,100)" d="M 289 0 L 317 0 A 3 3 0 0 1 320 3 L 320 29 A 0 0 0 0 1 320 29 L 286 29 A 0 0 0 0 1 286 29 L 286 3 A 3 3 0 0 1 289 0 Z" stroke="#ffffff" stroke-width="0" opacity="1" filter="none" class="highcharts-point"></path><path fill="rgb(255,205,100)" d="M 329 0 L 357 0 A 3 3 0 0 1 360 3 L 360 45 A 0 0 0 0 1 360 45 L 326 45 A 0 0 0 0 1 326 45 L 326 3 A 3 3 0 0 1 329 0 Z" stroke="#ffffff" stroke-width="0" opacity="1" filter="none" class="highcharts-point"></path><path fill="rgb(255,205,100)" d="M 369 0 L 397 0 A 3 3 0 0 1 400 3 L 400 62 A 0 0 0 0 1 400 62 L 366 62 A 0 0 0 0 1 366 62 L 366 3 A 3 3 0 0 1 369 0 Z" stroke="#ffffff" stroke-width="0" opacity="1" filter="none" class="highcharts-point"></path><path fill="rgb(255,205,100)" d="M 410 0 L 438 0 A 3 3 0 0 1 441 3 L 441 75 A 0 0 0 0 1 441 75 L 407 75 A 0 0 0 0 1 407 75 L 407 3 A 3 3 0 0 1 410 0 Z" stroke="#ffffff" stroke-width="0" opacity="1" filter="none" class="highcharts-point"></path><path fill="rgb(255,205,100)" d="M 450 0 L 478 0 A 3 3 0 0 1 481 3 L 481 80 A 0 0 0 0 1 481 80 L 447 80 A 0 0 0 0 1 447 80 L 447 3 A 3 3 0 0 1 450 0 Z" stroke="#ffffff" stroke-width="0" opacity="1" filter="none" class="highcharts-point"></path><path fill="rgb(255,205,100)" d="M 490 0 L 518 0 A 3 3 0 0 1 521 3 L 521 79 A 0 0 0 0 1 521 79 L 487 79 A 0 0 0 0 1 487 79 L 487 3 A 3 3 0 0 1 490 0 Z" stroke="#ffffff" stroke-width="0" opacity="1" filter="none" class="highcharts-point"></path><path fill="rgb(255,205,100)" d="M 531 0 L 559 0 A 3 3 0 0 1 562 3 L 562 78 A 0 0 0 0 1 562 78 L 528 78 A 0 0 0 0 1 528 78 L 528 3 A 3 3 0 0 1 531 0 Z" stroke="#ffffff" stroke-width="0" opacity="1" filter="none" class="highcharts-point"></path><path fill="rgb(255,205,100)" d="M 571 0 L 599 0 A 3 3 0 0 1 602 3 L 602 78 A 0 0 0 0 1 602 78 L 568 78 A 0 0 0 0 1 568 78 L 568 3 A 3 3 0 0 1 571 0 Z" stroke="#ffffff" stroke-width="0" opacity="1" filter="none" class="highcharts-point"></path><path fill="rgb(255,205,100)" d="M 611 0 L 639 0 A 3 3 0 0 1 642 3 L 642 80 A 0 0 0 0 1 642 80 L 608 80 A 0 0 0 0 1 608 80 L 608 3 A 3 3 0 0 1 611 0 Z" stroke="#ffffff" stroke-width="0" opacity="1" filter="none" class="highcharts-point"></path><path fill="rgb(255,205,100)" d="M 652 0 L 680 0 A 3 3 0 0 1 683 3 L 683 83 A 0 0 0 0 1 683 83 L 649 83 A 0 0 0 0 1 649 83 L 649 3 A 3 3 0 0 1 652 0 Z" stroke="#ffffff" stroke-width="0" opacity="1" filter="none" class="highcharts-point"></path><path fill="rgb(255,205,100)" d="M 692 0 L 720 0 A 3 3 0 0 1 723 3 L 723 88 A 0 0 0 0 1 723 88 L 689 88 A 0 0 0 0 1 689 88 L 689 3 A 3 3 0 0 1 692 0 Z" stroke="#ffffff" stroke-width="0" opacity="1" filter="none" class="highcharts-point"></path><path fill="rgb(255,205,100)" d="M 732 0 L 760 0 A 3 3 0 0 1 763 3 L 763 93 A 0 0 0 0 1 763 93 L 729 93 A 0 0 0 0 1 729 93 L 729 3 A 3 3 0 0 1 732 0 Z" stroke="#ffffff" stroke-width="0" opacity="1" filter="none" class="highcharts-point"></path><path fill="rgb(255,205,100)" d="M 773 0 L 801 0 A 3 3 0 0 1 804 3 L 804 102 A 0 0 0 0 1 804 102 L 770 102 A 0 0 0 0 1 770 102 L 770 3 A 3 3 0 0 1 773 0 Z" stroke="#ffffff" stroke-width="0" opacity="1" filter="none" class="highcharts-point"></path><path fill="rgb(255,205,100)" d="M 813 0 L 841 0 A 3 3 0 0 1 844 3 L 844 111 A 0 0 0 0 1 844 111 L 810 111 A 0 0 0 0 1 810 111 L 810 3 A 3 3 0 0 1 813 0 Z" stroke="#ffffff" stroke-width="0" opacity="1" filter="none" class="highcharts-point"></path><path fill="rgb(255,205,100)" d="M 853 0 L 881 0 A 3 3 0 0 1 884 3 L 884 127 A 0 0 0 0 1 884 127 L 850 127 A 0 0 0 0 1 850 127 L 850 3 A 3 3 0 0 1 853 0 Z" stroke="#ffffff" stroke-width="0" opacity="1" filter="none" class="highcharts-point"></path><path fill="rgb(255,205,100)" d="M 894 0 L 922 0 A 3 3 0 0 1 925 3 L 925 145 A 0 0 0 0 1 925 145 L 891 145 A 0 0 0 0 1 891 145 L 891 3 A 3 3 0 0 1 894 0 Z" stroke="#ffffff" stroke-width="0" opacity="1" filter="none" class="highcharts-point"></path><path fill="rgb(255,205,100)" d="M 934 0 L 962 0 A 3 3 0 0 1 965 3 L 965 147 A 0 0 0 0 1 965 147 L 931 147 A 0 0 0 0 1 931 147 L 931 3 A 3 3 0 0 1 934 0 Z" stroke="#ffffff" stroke-width="0" opacity="1" filter="none" class="highcharts-point"></path></g><g class="highcharts-markers highcharts-series-14 highcharts-column-series" data-z-index="0.1" opacity="1" transform="translate(46,50) scale(1 1)" clip-path="none"></g><g class="highcharts-series highcharts-series-15 highcharts-column-series" visibility="hidden" data-z-index="0.1" opacity="1" transform="translate(46,50) scale(1 1)" clip-path="url(#highcharts-9cd3oxt-1251-)"></g><g class="highcharts-markers highcharts-series-15 highcharts-column-series" visibility="hidden" data-z-index="0.1" opacity="1" transform="translate(46,50) scale(1 1)" clip-path="none"></g></g><text x="512" text-anchor="middle" class="highcharts-title" data-z-index="4" style="font-size: 16px; color: rgb(51, 51, 51); font-weight: bold; text-align: center; fill: rgb(51, 51, 51);" y="22">Installierte Netto-Leistung zur Stromerzeugung in Deutschland</text><text x="512" text-anchor="middle" class="highcharts-subtitle" data-z-index="4" style="color: rgb(102, 102, 102); font-size: 0.8em; fill: rgb(102, 102, 102);" y="48"></text><text x="512" text-anchor="middle" class="highcharts-caption" data-z-index="4" style="color: rgb(102, 102, 102); font-size: 0.8em; fill: rgb(102, 102, 102);" y="555">Energy-Charts.info; Datenquelle: BMWi, Bundesnetzagentur;   Letztes Update: 14.04.2025, 07:42 MESZ</text><g class="highcharts-legend highcharts-no-tooltip" data-z-index="7" transform="translate(92,495)"><rect fill="none" class="highcharts-legend-box" rx="0" ry="0" stroke="#999999" stroke-width="0" filter="none" x="0" y="0" width="840" height="34"></rect><g data-z-index="1"><g><g class="highcharts-legend-item highcharts-column-series highcharts-color-undefined highcharts-series-0" data-z-index="1" transform="translate(0,-5)"><text x="21" text-anchor="start" data-z-index="2" style="color: rgb(51, 51, 51); cursor: pointer; font-size: 10px; text-decoration: none; font-weight: bold; fill: rgb(51, 51, 51);" y="13">Kernenergie</text><rect x="3" y="4" rx="5" ry="5" width="10" height="10" fill="rgb(255,0,0)" class="highcharts-point" data-z-index="3"></rect></g><g class="highcharts-legend-item highcharts-column-series highcharts-color-undefined highcharts-series-1" data-z-index="1" transform="translate(172.052734375,-5)"><text x="21" y="13" text-anchor="start" data-z-index="2" style="color: rgb(51, 51, 51); cursor: pointer; font-size: 10px; text-decoration: none; font-weight: bold; fill: rgb(51, 51, 51);">Braunkohle</text><rect x="3" y="4" rx="5" ry="5" width="10" height="10" fill="rgb(150, 125, 100)" class="highcharts-point" data-z-index="3"></rect></g><g class="highcharts-legend-item highcharts-column-series highcharts-color-undefined highcharts-series-2" data-z-index="1" transform="translate(344.10546875,-5)"><text x="21" y="13" text-anchor="start" data-z-index="2" style="color: rgb(51, 51, 51); cursor: pointer; font-size: 10px; text-decoration: none; font-weight: bold; fill: rgb(51, 51, 51);">Steinkohle</text><rect x="3" y="4" rx="5" ry="5" width="10" height="10" fill="rgb(50,50,50)" class="highcharts-point" data-z-index="3"></rect></g><g class="highcharts-legend-item highcharts-column-series highcharts-color-undefined highcharts-series-3" data-z-index="1" transform="translate(516.158203125,-5)"><text x="21" y="13" text-anchor="start" data-z-index="2" style="color: rgb(51, 51, 51); cursor: pointer; font-size: 10px; text-decoration: none; font-weight: bold; fill: rgb(51, 51, 51);">Erdgas</text><rect x="3" y="4" rx="5" ry="5" width="10" height="10" fill="rgb(250, 150, 75)" class="highcharts-point" data-z-index="3"></rect></g><g class="highcharts-legend-item highcharts-column-series highcharts-color-undefined highcharts-series-4" data-z-index="1" transform="translate(688.2109375,-5)"><text x="21" y="13" text-anchor="start" data-z-index="2" style="color: rgb(51, 51, 51); cursor: pointer; font-size: 10px; text-decoration: none; font-weight: bold; fill: rgb(51, 51, 51);">Mineralöl</text><rect x="3" y="4" rx="5" ry="5" width="10" height="10" fill="rgb(125,100,75)" class="highcharts-point" data-z-index="3"></rect></g><g class="highcharts-legend-item highcharts-column-series highcharts-color-undefined highcharts-series-5" data-z-index="1" transform="translate(0,8)"><text x="21" y="13" text-anchor="start" data-z-index="2" style="color: rgb(51, 51, 51); cursor: pointer; font-size: 10px; text-decoration: none; font-weight: bold; fill: rgb(51, 51, 51);">Sonstige, nicht erneuerbar</text><rect x="3" y="4" rx="5" ry="5" width="10" height="10" fill="rgb(150,125,175)" class="highcharts-point" data-z-index="3"></rect></g><g class="highcharts-legend-item highcharts-column-series highcharts-color-undefined highcharts-series-6" data-z-index="1" transform="translate(172.052734375,8)"><text x="21" y="13" text-anchor="start" data-z-index="2" style="color: rgb(51, 51, 51); cursor: pointer; font-size: 10px; text-decoration: none; font-weight: bold; fill: rgb(51, 51, 51);">Wasser</text><rect x="3" y="4" rx="5" ry="5" width="10" height="10" fill="rgb(0,0,175)" class="highcharts-point" data-z-index="3"></rect></g><g class="highcharts-legend-item highcharts-column-series highcharts-color-undefined highcharts-series-10" data-z-index="1" transform="translate(344.10546875,8)"><text x="21" y="13" text-anchor="start" data-z-index="2" style="color: rgb(51, 51, 51); cursor: pointer; font-size: 10px; text-decoration: none; font-weight: bold; fill: rgb(51, 51, 51);">Biomasse</text><rect x="3" y="4" rx="5" ry="5" width="10" height="10" fill="rgb(0, 150, 50)" class="highcharts-point" data-z-index="3"></rect></g><g class="highcharts-legend-item highcharts-column-series highcharts-color-undefined highcharts-series-11" data-z-index="1" transform="translate(516.158203125,8)"><text x="21" y="13" text-anchor="start" data-z-index="2" style="color: rgb(51, 51, 51); cursor: pointer; font-size: 10px; text-decoration: none; font-weight: bold; fill: rgb(51, 51, 51);">Wind offshore</text><rect x="3" y="4" rx="5" ry="5" width="10" height="10" fill="rgb(155,175,145)" class="highcharts-point" data-z-index="3"></rect></g><g class="highcharts-legend-item highcharts-column-series highcharts-color-undefined highcharts-series-12" data-z-index="1" transform="translate(688.2109375,8)"><text x="21" y="13" text-anchor="start" data-z-index="2" style="color: rgb(51, 51, 51); cursor: pointer; font-size: 10px; text-decoration: none; font-weight: bold; fill: rgb(51, 51, 51);">Wind onshore</text><rect x="3" y="4" rx="5" ry="5" width="10" height="10" fill="rgb(195,215,185)" class="highcharts-point" data-z-index="3"></rect></g><g class="highcharts-legend-item highcharts-column-series highcharts-color-undefined highcharts-series-14" data-z-index="1" transform="translate(0,21)"><text x="21" y="13" text-anchor="start" data-z-index="2" style="color: rgb(51, 51, 51); cursor: pointer; font-size: 10px; text-decoration: none; font-weight: bold; fill: rgb(51, 51, 51);">Solar</text><rect x="3" y="4" rx="5" ry="5" width="10" height="10" fill="rgb(255,205,100)" class="highcharts-point" data-z-index="3"></rect></g></g></g></g><g class="highcharts-axis-labels highcharts-xaxis-labels" data-z-index="7"><text x="66.166666666667" style="color: rgb(51, 51, 51); cursor: default; font-size: 0.8em; fill: rgb(51, 51, 51);" text-anchor="middle" transform="translate(0,0)" y="455" opacity="1">2002</text><text x="267.83333333334" style="color: rgb(51, 51, 51); cursor: default; font-size: 0.8em; fill: rgb(51, 51, 51);" text-anchor="middle" transform="translate(0,0)" y="455" opacity="1">2007</text><text x="469.5" style="color: rgb(51, 51, 51); cursor: default; font-size: 0.8em; fill: rgb(51, 51, 51);" text-anchor="middle" transform="translate(0,0)" y="455" opacity="1">2012</text><text x="671.16666666667" style="color: rgb(51, 51, 51); cursor: default; font-size: 0.8em; fill: rgb(51, 51, 51);" text-anchor="middle" transform="translate(0,0)" y="455" opacity="1">2017</text><text x="872.83333333334" style="color: rgb(51, 51, 51); cursor: default; font-size: 0.8em; fill: rgb(51, 51, 51);" text-anchor="middle" transform="translate(0,0)" y="455" opacity="1">2022</text></g><g class="highcharts-axis-labels highcharts-yaxis-labels" data-z-index="7"><text x="31" style="color: rgb(102, 102, 102); cursor: default; font-size: 0.8em; fill: rgb(102, 102, 102);" text-anchor="end" transform="translate(0,0)" y="432" opacity="1">0</text><text x="31" style="color: rgb(102, 102, 102); cursor: default; font-size: 0.8em; fill: rgb(102, 102, 102);" text-anchor="end" transform="translate(0,0)" y="356" opacity="1">20</text><text x="31" style="color: rgb(102, 102, 102); cursor: default; font-size: 0.8em; fill: rgb(102, 102, 102);" text-anchor="end" transform="translate(0,0)" y="280" opacity="1">40</text><text x="31" style="color: rgb(102, 102, 102); cursor: default; font-size: 0.8em; fill: rgb(102, 102, 102);" text-anchor="end" transform="translate(0,0)" y="204" opacity="1">60</text><text x="31" style="color: rgb(102, 102, 102); cursor: default; font-size: 0.8em; fill: rgb(102, 102, 102);" text-anchor="end" transform="translate(0,0)" y="128" opacity="1">80</text><text x="31" style="color: rgb(102, 102, 102); cursor: default; font-size: 0.8em; fill: rgb(102, 102, 102);" text-anchor="end" transform="translate(0,0)" y="53" opacity="1">100</text></g><g class="highcharts-axis-labels highcharts-yaxis-labels" data-z-index="7"></g><g class="highcharts-axis-labels highcharts-yaxis-labels" data-z-index="7"></g><g class="highcharts-axis-labels highcharts-yaxis-labels" data-z-index="7"></g><g class="highcharts-axis-labels highcharts-yaxis-labels" data-z-index="7"></g></svg>